<?xml version="1.0" encoding="UTF-8" standalone="no"?><svg xmlns="http://www.w3.org/2000/svg" xmlns:xlink="http://www.w3.org/1999/xlink" contentScriptType="application/ecmascript" contentStyleType="text/css" height="487px" preserveAspectRatio="none" style="width:494px;height:487px;" version="1.1" viewBox="0 0 494 487" width="494px" zoomAndPan="magnify"><defs><filter height="300%" id="f17m37tb1sfy84" width="300%" x="-1" y="-1"><feGaussianBlur result="blurOut" stdDeviation="2.0"/><feColorMatrix in="blurOut" result="blurOut2" type="matrix" values="0 0 0 0 0 0 0 0 0 0 0 0 0 0 0 0 0 0 .4 0"/><feOffset dx="4.0" dy="4.0" in="blurOut2" result="blurOut3"/><feBlend in="SourceGraphic" in2="blurOut3" mode="normal"/></filter></defs><g><rect fill="#FFFFFF" filter="url(#f17m37tb1sfy84)" height="211.9421" style="stroke:#000000;stroke-width:2.0;" width="470" x="10" y="108.0679"/><rect fill="#FFFFFF" filter="url(#f17m37tb1sfy84)" height="83.118" style="stroke:#000000;stroke-width:2.0;" width="450" x="20" y="134.7739"/><line style="stroke:#A80036;stroke-width:1.0;stroke-dasharray:5.0,5.0;" x1="56" x2="56" y1="91.0679" y2="400.4221"/><line style="stroke:#A80036;stroke-width:1.0;stroke-dasharray:5.0,5.0;" x1="256" x2="256" y1="91.0679" y2="400.4221"/><line style="stroke:#A80036;stroke-width:1.0;stroke-dasharray:5.0,5.0;" x1="407" x2="407" y1="91.0679" y2="400.4221"/><text fill="#000000" font-family="sans-serif" font-size="14" lengthAdjust="spacing" textLength="47" x="30" y="86.9659">Spieler</text><ellipse cx="56.5" cy="15" fill="#FEFECE" filter="url(#f17m37tb1sfy84)" rx="8" ry="8" style="stroke:#A80036;stroke-width:2.0;"/><path d="M56.5,23 L56.5,50 M43.5,31 L69.5,31 M56.5,50 L43.5,65 M56.5,50 L69.5,65 " fill="none" filter="url(#f17m37tb1sfy84)" style="stroke:#A80036;stroke-width:2.0;"/><text fill="#000000" font-family="sans-serif" font-size="14" lengthAdjust="spacing" textLength="47" x="30" y="414.388">Spieler</text><ellipse cx="56.5" cy="428.49" fill="#FEFECE" filter="url(#f17m37tb1sfy84)" rx="8" ry="8" style="stroke:#A80036;stroke-width:2.0;"/><path d="M56.5,436.49 L56.5,463.49 M43.5,444.49 L69.5,444.49 M56.5,463.49 L43.5,478.49 M56.5,463.49 L69.5,478.49 " fill="none" filter="url(#f17m37tb1sfy84)" style="stroke:#A80036;stroke-width:2.0;"/><rect fill="#FEFECE" filter="url(#f17m37tb1sfy84)" height="33.0679" style="stroke:#A80036;stroke-width:1.5;" width="73" x="218" y="53"/><text fill="#000000" font-family="sans-serif" font-size="14" lengthAdjust="spacing" textLength="59" x="225" y="74.9659">Croupier</text><rect fill="#FEFECE" filter="url(#f17m37tb1sfy84)" height="33.0679" style="stroke:#A80036;stroke-width:1.5;" width="73" x="218" y="399.4221"/><text fill="#000000" font-family="sans-serif" font-size="14" lengthAdjust="spacing" textLength="59" x="225" y="421.388">Croupier</text><rect fill="#FEFECE" filter="url(#f17m37tb1sfy84)" height="33.0679" style="stroke:#A80036;stroke-width:1.5;" width="101" x="355" y="53"/><text fill="#000000" font-family="sans-serif" font-size="14" lengthAdjust="spacing" textLength="87" x="362" y="74.9659">Kartenzähler</text><rect fill="#FEFECE" filter="url(#f17m37tb1sfy84)" height="33.0679" style="stroke:#A80036;stroke-width:1.5;" width="101" x="355" y="399.4221"/><text fill="#000000" font-family="sans-serif" font-size="14" lengthAdjust="spacing" textLength="87" x="362" y="421.388">Kartenzähler</text><path d="M10,108.0679 L83,108.0679 L83,117.0679 L73,127.0679 L10,127.0679 L10,108.0679 " fill="#EEEEEE" style="stroke:#000000;stroke-width:1.0;"/><rect fill="none" height="211.9421" style="stroke:#000000;stroke-width:2.0;" width="470" x="10" y="108.0679"/><text fill="#000000" font-family="sans-serif" font-size="13" font-weight="bold" lengthAdjust="spacing" textLength="28" x="25" y="122.9649">loop</text><text fill="#000000" font-family="sans-serif" font-size="11" font-weight="bold" lengthAdjust="spacing" textLength="78" x="98" y="121.8268">[Punkte =&lt; 21]</text><path d="M20,134.7739 L87,134.7739 L87,143.7739 L77,153.7739 L20,153.7739 L20,134.7739 " fill="#EEEEEE" style="stroke:#000000;stroke-width:1.0;"/><rect fill="none" height="83.118" style="stroke:#000000;stroke-width:2.0;" width="450" x="20" y="134.7739"/><text fill="#000000" font-family="sans-serif" font-size="13" font-weight="bold" lengthAdjust="spacing" textLength="22" x="35" y="149.6709">opt</text><text fill="#000000" font-family="sans-serif" font-size="11" font-weight="bold" lengthAdjust="spacing" textLength="128" x="102" y="148.5328">[Empfehlung abfragen]</text><polygon fill="#A80036" points="395.5,174.186,405.5,178.186,395.5,182.186,399.5,178.186" style="stroke:#A80036;stroke-width:1.0;"/><line style="stroke:#A80036;stroke-width:1.0;" x1="56.5" x2="401.5" y1="178.186" y2="178.186"/><text fill="#000000" font-family="sans-serif" font-size="13" lengthAdjust="spacing" textLength="130" x="63.5" y="172.377">Empfehlung abfragen</text><polygon fill="#A80036" points="67.5,205.892,57.5,209.892,67.5,213.892,63.5,209.892" style="stroke:#A80036;stroke-width:1.0;"/><line style="stroke:#A80036;stroke-width:1.0;" x1="61.5" x2="406.5" y1="209.892" y2="209.892"/><text fill="#000000" font-family="sans-serif" font-size="13" lengthAdjust="spacing" textLength="94" x="73.5" y="204.083">Empfehlung Hit</text><polygon fill="#A80036" points="244.5,244.598,254.5,248.598,244.5,252.598,248.5,248.598" style="stroke:#A80036;stroke-width:1.0;"/><line style="stroke:#A80036;stroke-width:1.0;" x1="56.5" x2="250.5" y1="248.598" y2="248.598"/><text fill="#000000" font-family="sans-serif" font-size="13" lengthAdjust="spacing" textLength="18" x="63.5" y="242.789">Hit</text><polygon fill="#A80036" points="67.5,276.304,57.5,280.304,67.5,284.304,63.5,280.304" style="stroke:#A80036;stroke-width:1.0;"/><line style="stroke:#A80036;stroke-width:1.0;" x1="61.5" x2="255.5" y1="280.304" y2="280.304"/><text fill="#000000" font-family="sans-serif" font-size="13" lengthAdjust="spacing" textLength="32" x="73.5" y="274.495">Karte</text><polygon fill="#A80036" points="395.5,308.01,405.5,312.01,395.5,316.01,399.5,312.01" style="stroke:#A80036;stroke-width:1.0;"/><line style="stroke:#A80036;stroke-width:1.0;" x1="256.5" x2="401.5" y1="312.01" y2="312.01"/><text fill="#000000" font-family="sans-serif" font-size="13" lengthAdjust="spacing" textLength="127" x="263.5" y="306.201">Statistik aktualisieren</text><polygon fill="#A80036" points="67.5,346.716,57.5,350.716,67.5,354.716,63.5,350.716" style="stroke:#A80036;stroke-width:1.0;"/><line style="stroke:#A80036;stroke-width:1.0;" x1="61.5" x2="255.5" y1="350.716" y2="350.716"/><text fill="#000000" font-family="sans-serif" font-size="13" lengthAdjust="spacing" textLength="176" x="73.5" y="344.907">"Bust" (automatisch verloren)</text><polygon fill="#A80036" points="395.5,378.4221,405.5,382.4221,395.5,386.4221,399.5,382.4221" style="stroke:#A80036;stroke-width:1.0;"/><line style="stroke:#A80036;stroke-width:1.0;" x1="256.5" x2="401.5" y1="382.4221" y2="382.4221"/><text fill="#000000" font-family="sans-serif" font-size="13" lengthAdjust="spacing" textLength="127" x="263.5" y="376.6131">Statistik aktualisieren</text><!--MD5=[75a24cca2512285ddf420ee1686dd23d]
@startuml Bust
actor Spieler
participant Croupier
participant Kartenzähler

loop Punkte =< 21 
opt Empfehlung abfragen
Spieler -> Kartenzähler: Empfehlung abfragen
Kartenzähler -> Spieler: Empfehlung Hit
end
Spieler -> Croupier : Hit
Croupier -> Spieler : Karte
Croupier -> Kartenzähler: Statistik aktualisieren
end

Croupier -> Spieler : "Bust" (automatisch verloren)
Croupier -> Kartenzähler : Statistik aktualisieren
@enduml

PlantUML version 1.2021.00(Sun Jan 10 10:25:05 GMT 2021)
(MIT source distribution)
Java Runtime: OpenJDK Runtime Environment
JVM: OpenJDK 64-Bit Server VM
Default Encoding: UTF-8
Language: en
Country: GB
--></g></svg>