<?xml version="1.0" encoding="UTF-8" standalone="no"?><svg xmlns="http://www.w3.org/2000/svg" xmlns:xlink="http://www.w3.org/1999/xlink" contentScriptType="application/ecmascript" contentStyleType="text/css" height="360px" preserveAspectRatio="none" style="width:221px;height:360px;" version="1.1" viewBox="0 0 221 360" width="221px" zoomAndPan="magnify"><defs><filter height="300%" id="f7idgue4eoo0d" width="300%" x="-1" y="-1"><feGaussianBlur result="blurOut" stdDeviation="2.0"/><feColorMatrix in="blurOut" result="blurOut2" type="matrix" values="0 0 0 0 0 0 0 0 0 0 0 0 0 0 0 0 0 0 .4 0"/><feOffset dx="4.0" dy="4.0" in="blurOut2" result="blurOut3"/><feBlend in="SourceGraphic" in2="blurOut3" mode="normal"/></filter></defs><g><rect fill="#FFFFFF" filter="url(#f7idgue4eoo0d)" height="116.8241" style="stroke:#000000;stroke-width:2.0;" width="197" x="10" y="139.7739"/><rect fill="#FFFFFF" height="33.706" style="stroke:none;stroke-width:1.0;" width="197" x="10" y="222.892"/><line style="stroke:#A80036;stroke-width:1.0;stroke-dasharray:5.0,5.0;" x1="46" x2="46" y1="91.0679" y2="273.598"/><line style="stroke:#A80036;stroke-width:1.0;stroke-dasharray:5.0,5.0;" x1="142" x2="142" y1="91.0679" y2="273.598"/><text fill="#000000" font-family="sans-serif" font-size="14" lengthAdjust="spacing" textLength="47" x="20" y="86.9659">Spieler</text><ellipse cx="46.5" cy="15" fill="#FEFECE" filter="url(#f7idgue4eoo0d)" rx="8" ry="8" style="stroke:#A80036;stroke-width:2.0;"/><path d="M46.5,23 L46.5,50 M33.5,31 L59.5,31 M46.5,50 L33.5,65 M46.5,50 L59.5,65 " fill="none" filter="url(#f7idgue4eoo0d)" style="stroke:#A80036;stroke-width:2.0;"/><text fill="#000000" font-family="sans-serif" font-size="14" lengthAdjust="spacing" textLength="47" x="20" y="287.5639">Spieler</text><ellipse cx="46.5" cy="301.6659" fill="#FEFECE" filter="url(#f7idgue4eoo0d)" rx="8" ry="8" style="stroke:#A80036;stroke-width:2.0;"/><path d="M46.5,309.6659 L46.5,336.6659 M33.5,317.6659 L59.5,317.6659 M46.5,336.6659 L33.5,351.6659 M46.5,336.6659 L59.5,351.6659 " fill="none" filter="url(#f7idgue4eoo0d)" style="stroke:#A80036;stroke-width:2.0;"/><rect fill="#FEFECE" filter="url(#f7idgue4eoo0d)" height="33.0679" style="stroke:#A80036;stroke-width:1.5;" width="73" x="104" y="53"/><text fill="#000000" font-family="sans-serif" font-size="14" lengthAdjust="spacing" textLength="59" x="111" y="74.9659">Croupier</text><rect fill="#FEFECE" filter="url(#f7idgue4eoo0d)" height="33.0679" style="stroke:#A80036;stroke-width:1.5;" width="73" x="104" y="272.598"/><text fill="#000000" font-family="sans-serif" font-size="14" lengthAdjust="spacing" textLength="59" x="111" y="294.5639">Croupier</text><polygon fill="#A80036" points="130.5,120.7739,140.5,124.7739,130.5,128.7739,134.5,124.7739" style="stroke:#A80036;stroke-width:1.0;"/><line style="stroke:#A80036;stroke-width:1.0;" x1="46.5" x2="136.5" y1="124.7739" y2="124.7739"/><text fill="#000000" font-family="sans-serif" font-size="13" lengthAdjust="spacing" textLength="72" x="53.5" y="118.9649">Registrieren</text><path d="M10,139.7739 L73,139.7739 L73,148.7739 L63,158.7739 L10,158.7739 L10,139.7739 " fill="#EEEEEE" style="stroke:#000000;stroke-width:1.0;"/><rect fill="none" height="116.8241" style="stroke:#000000;stroke-width:2.0;" width="197" x="10" y="139.7739"/><text fill="#000000" font-family="sans-serif" font-size="13" font-weight="bold" lengthAdjust="spacing" textLength="18" x="25" y="154.6709">alt</text><text fill="#000000" font-family="sans-serif" font-size="11" font-weight="bold" lengthAdjust="spacing" textLength="114" x="88" y="153.5328">[keine Freien Plätze]</text><polygon fill="#A80036" points="57.5,179.186,47.5,183.186,57.5,187.186,53.5,183.186" style="stroke:#A80036;stroke-width:1.0;"/><line style="stroke:#A80036;stroke-width:1.0;" x1="51.5" x2="141.5" y1="183.186" y2="183.186"/><text fill="#000000" font-family="sans-serif" font-size="13" lengthAdjust="spacing" textLength="34" x="63.5" y="177.377">NACK</text><polygon fill="#A80036" points="57.5,210.892,47.5,214.892,57.5,218.892,53.5,214.892" style="stroke:#A80036;stroke-width:1.0;"/><line style="stroke:#A80036;stroke-width:1.0;" x1="51.5" x2="141.5" y1="214.892" y2="214.892"/><text fill="#000000" font-family="sans-serif" font-size="13" lengthAdjust="spacing" textLength="71" x="63.5" y="209.083">Tisch ist voll</text><line style="stroke:#000000;stroke-width:1.0;stroke-dasharray:2.0,2.0;" x1="10" x2="207" y1="223.892" y2="223.892"/><polygon fill="#A80036" points="57.5,244.598,47.5,248.598,57.5,252.598,53.5,248.598" style="stroke:#A80036;stroke-width:1.0;"/><line style="stroke:#A80036;stroke-width:1.0;" x1="51.5" x2="141.5" y1="248.598" y2="248.598"/><text fill="#000000" font-family="sans-serif" font-size="13" lengthAdjust="spacing" textLength="24" x="63.5" y="242.789">ACK</text><!--MD5=[1a1072a536edd0e0f3f9ef97a3ef3a23]
@startuml register_spieler
actor Spieler
participant Croupier

Spieler-> Croupier: Registrieren
alt keine Freien Plätze
    Croupier -> Spieler: NACK
    Croupier -> Spieler: Tisch ist voll
else
    Croupier -> Spieler : ACK
end
@enduml

PlantUML version 1.2021.00(Sun Jan 10 10:25:05 GMT 2021)
(MIT source distribution)
Java Runtime: OpenJDK Runtime Environment
JVM: OpenJDK 64-Bit Server VM
Default Encoding: UTF-8
Language: en
Country: GB
--></g></svg>