<?xml version="1.0" encoding="UTF-8" standalone="no"?><svg xmlns="http://www.w3.org/2000/svg" xmlns:xlink="http://www.w3.org/1999/xlink" contentScriptType="application/ecmascript" contentStyleType="text/css" height="980px" preserveAspectRatio="none" style="width:518px;height:980px;" version="1.1" viewBox="0 0 518 980" width="518px" zoomAndPan="magnify"><defs><filter height="300%" id="f140cnbwnkeo8f" width="300%" x="-1" y="-1"><feGaussianBlur result="blurOut" stdDeviation="2.0"/><feColorMatrix in="blurOut" result="blurOut2" type="matrix" values="0 0 0 0 0 0 0 0 0 0 0 0 0 0 0 0 0 0 .4 0"/><feOffset dx="4.0" dy="4.0" in="blurOut2" result="blurOut3"/><feBlend in="SourceGraphic" in2="blurOut3" mode="normal"/></filter></defs><g><rect fill="#FFFFFF" filter="url(#f140cnbwnkeo8f)" height="768.5324" style="stroke:#000000;stroke-width:2.0;" width="494" x="10" y="108.0679"/><rect fill="#FFFFFF" filter="url(#f140cnbwnkeo8f)" height="381.7662" style="stroke:#000000;stroke-width:2.0;" width="474" x="20" y="166.4799"/><rect fill="#FFFFFF" filter="url(#f140cnbwnkeo8f)" height="316.3541" style="stroke:#000000;stroke-width:2.0;" width="454" x="30" y="224.892"/><rect fill="#FFFFFF" filter="url(#f140cnbwnkeo8f)" height="51.412" style="stroke:#000000;stroke-width:2.0;" width="259" x="40" y="404.4221"/><rect fill="#FFFFFF" height="78.412" style="stroke:none;stroke-width:1.0;" width="454" x="30" y="462.8341"/><rect fill="#FFFFFF" filter="url(#f140cnbwnkeo8f)" height="273.6481" style="stroke:#000000;stroke-width:2.0;" width="464" x="30" y="562.2461"/><rect fill="#FFFFFF" filter="url(#f140cnbwnkeo8f)" height="83.118" style="stroke:#000000;stroke-width:2.0;" width="444" x="40" y="588.9521"/><rect fill="#FFFFFF" filter="url(#f140cnbwnkeo8f)" height="142.8241" style="stroke:#000000;stroke-width:2.0;" width="259" x="40" y="686.0702"/><rect fill="#FFFFFF" height="46.706" style="stroke:none;stroke-width:1.0;" width="259" x="40" y="782.1882"/><rect fill="#FFFFFF" height="33.706" style="stroke:none;stroke-width:1.0;" width="494" x="10" y="842.8943"/><line style="stroke:#A80036;stroke-width:1.0;stroke-dasharray:5.0,5.0;" x1="82" x2="82" y1="91.0679" y2="893.6003"/><line style="stroke:#A80036;stroke-width:1.0;stroke-dasharray:5.0,5.0;" x1="236" x2="236" y1="91.0679" y2="893.6003"/><line style="stroke:#A80036;stroke-width:1.0;stroke-dasharray:5.0,5.0;" x1="441" x2="441" y1="91.0679" y2="893.6003"/><text fill="#000000" font-family="sans-serif" font-size="14" lengthAdjust="spacing" textLength="59" x="50" y="86.9659">Croupier</text><ellipse cx="82.5" cy="15" fill="#FEFECE" filter="url(#f140cnbwnkeo8f)" rx="8" ry="8" style="stroke:#A80036;stroke-width:2.0;"/><path d="M82.5,23 L82.5,50 M69.5,31 L95.5,31 M82.5,50 L69.5,65 M82.5,50 L95.5,65 " fill="none" filter="url(#f140cnbwnkeo8f)" style="stroke:#A80036;stroke-width:2.0;"/><text fill="#000000" font-family="sans-serif" font-size="14" lengthAdjust="spacing" textLength="59" x="50" y="907.5662">Croupier</text><ellipse cx="82.5" cy="921.6682" fill="#FEFECE" filter="url(#f140cnbwnkeo8f)" rx="8" ry="8" style="stroke:#A80036;stroke-width:2.0;"/><path d="M82.5,929.6682 L82.5,956.6682 M69.5,937.6682 L95.5,937.6682 M82.5,956.6682 L69.5,971.6682 M82.5,956.6682 L95.5,971.6682 " fill="none" filter="url(#f140cnbwnkeo8f)" style="stroke:#A80036;stroke-width:2.0;"/><rect fill="#FEFECE" filter="url(#f140cnbwnkeo8f)" height="33.0679" style="stroke:#A80036;stroke-width:1.5;" width="101" x="184" y="53"/><text fill="#000000" font-family="sans-serif" font-size="14" lengthAdjust="spacing" textLength="87" x="191" y="74.9659">Kartenzähler</text><rect fill="#FEFECE" filter="url(#f140cnbwnkeo8f)" height="33.0679" style="stroke:#A80036;stroke-width:1.5;" width="101" x="184" y="892.6003"/><text fill="#000000" font-family="sans-serif" font-size="14" lengthAdjust="spacing" textLength="87" x="191" y="914.5662">Kartenzähler</text><rect fill="#FEFECE" filter="url(#f140cnbwnkeo8f)" height="33.0679" style="stroke:#A80036;stroke-width:1.5;" width="61" x="409" y="53"/><text fill="#000000" font-family="sans-serif" font-size="14" lengthAdjust="spacing" textLength="47" x="416" y="74.9659">Spieler</text><rect fill="#FEFECE" filter="url(#f140cnbwnkeo8f)" height="33.0679" style="stroke:#A80036;stroke-width:1.5;" width="61" x="409" y="892.6003"/><text fill="#000000" font-family="sans-serif" font-size="14" lengthAdjust="spacing" textLength="47" x="416" y="914.5662">Spieler</text><path d="M10,108.0679 L73,108.0679 L73,117.0679 L63,127.0679 L10,127.0679 L10,108.0679 " fill="#EEEEEE" style="stroke:#000000;stroke-width:1.0;"/><rect fill="none" height="768.5324" style="stroke:#000000;stroke-width:2.0;" width="494" x="10" y="108.0679"/><text fill="#000000" font-family="sans-serif" font-size="13" font-weight="bold" lengthAdjust="spacing" textLength="18" x="25" y="122.9649">alt</text><text fill="#000000" font-family="sans-serif" font-size="11" font-weight="bold" lengthAdjust="spacing" textLength="348" x="88" y="121.8268">[Boxinhaber signalisiert Spielstart &amp;&amp; Kartenzähler registriert]</text><polygon fill="#A80036" points="224.5,147.4799,234.5,151.4799,224.5,155.4799,228.5,151.4799" style="stroke:#A80036;stroke-width:1.0;"/><line style="stroke:#A80036;stroke-width:1.0;" x1="82.5" x2="230.5" y1="151.4799" y2="151.4799"/><text fill="#000000" font-family="sans-serif" font-size="13" lengthAdjust="spacing" textLength="119" x="89.5" y="145.6709">Spieler-Liste senden</text><path d="M20,166.4799 L93,166.4799 L93,175.4799 L83,185.4799 L20,185.4799 L20,166.4799 " fill="#EEEEEE" style="stroke:#000000;stroke-width:1.0;"/><rect fill="none" height="381.7662" style="stroke:#000000;stroke-width:2.0;" width="474" x="20" y="166.4799"/><text fill="#000000" font-family="sans-serif" font-size="13" font-weight="bold" lengthAdjust="spacing" textLength="28" x="35" y="181.377">loop</text><text fill="#000000" font-family="sans-serif" font-size="11" font-weight="bold" lengthAdjust="spacing" textLength="158" x="108" y="180.2389">[noch unregistrierte Spieler]</text><polygon fill="#A80036" points="429.5,205.892,439.5,209.892,429.5,213.892,433.5,209.892" style="stroke:#A80036;stroke-width:1.0;"/><line style="stroke:#A80036;stroke-width:1.0;" x1="236.5" x2="435.5" y1="209.892" y2="209.892"/><text fill="#000000" font-family="sans-serif" font-size="13" lengthAdjust="spacing" textLength="133" x="243.5" y="204.083">Registrierungsanfrage</text><path d="M30,224.892 L93,224.892 L93,233.892 L83,243.892 L30,243.892 L30,224.892 " fill="#EEEEEE" style="stroke:#000000;stroke-width:1.0;"/><rect fill="none" height="316.3541" style="stroke:#000000;stroke-width:2.0;" width="454" x="30" y="224.892"/><text fill="#000000" font-family="sans-serif" font-size="13" font-weight="bold" lengthAdjust="spacing" textLength="18" x="45" y="239.789">alt</text><text fill="#000000" font-family="sans-serif" font-size="11" font-weight="bold" lengthAdjust="spacing" textLength="53" x="108" y="238.6509">[timeout]</text><polygon fill="#A80036" points="93.5,264.304,83.5,268.304,93.5,272.304,89.5,268.304" style="stroke:#A80036;stroke-width:1.0;"/><line style="stroke:#A80036;stroke-width:1.0;" x1="87.5" x2="235.5" y1="268.304" y2="268.304"/><text fill="#000000" font-family="sans-serif" font-size="13" lengthAdjust="spacing" textLength="130" x="99.5" y="262.495">Registrierung löschen</text><line style="stroke:#A80036;stroke-width:1.0;" x1="82.5" x2="124.5" y1="300.01" y2="300.01"/><line style="stroke:#A80036;stroke-width:1.0;" x1="124.5" x2="124.5" y1="300.01" y2="313.01"/><line style="stroke:#A80036;stroke-width:1.0;" x1="83.5" x2="124.5" y1="313.01" y2="313.01"/><polygon fill="#A80036" points="93.5,309.01,83.5,313.01,93.5,317.01,89.5,313.01" style="stroke:#A80036;stroke-width:1.0;"/><text fill="#000000" font-family="sans-serif" font-size="13" lengthAdjust="spacing" textLength="92" x="89.5" y="294.201">entfernt Spieler</text><polygon fill="#A80036" points="224.5,340.716,234.5,344.716,224.5,348.716,228.5,344.716" style="stroke:#A80036;stroke-width:1.0;"/><line style="stroke:#A80036;stroke-width:1.0;" x1="82.5" x2="230.5" y1="344.716" y2="344.716"/><text fill="#000000" font-family="sans-serif" font-size="13" lengthAdjust="spacing" textLength="92" x="89.5" y="338.907">Spieler entfernt</text><line style="stroke:#A80036;stroke-width:1.0;" x1="236.5" x2="278.5" y1="376.4221" y2="376.4221"/><line style="stroke:#A80036;stroke-width:1.0;" x1="278.5" x2="278.5" y1="376.4221" y2="389.4221"/><line style="stroke:#A80036;stroke-width:1.0;" x1="237.5" x2="278.5" y1="389.4221" y2="389.4221"/><polygon fill="#A80036" points="247.5,385.4221,237.5,389.4221,247.5,393.4221,243.5,389.4221" style="stroke:#A80036;stroke-width:1.0;"/><text fill="#000000" font-family="sans-serif" font-size="13" lengthAdjust="spacing" textLength="191" x="243.5" y="370.6131">entfernt Spieler aus Spieler-Liste</text><path d="M40,404.4221 L103,404.4221 L103,413.4221 L93,423.4221 L40,423.4221 L40,404.4221 " fill="#EEEEEE" style="stroke:#000000;stroke-width:1.0;"/><rect fill="none" height="51.412" style="stroke:#000000;stroke-width:2.0;" width="259" x="40" y="404.4221"/><text fill="#000000" font-family="sans-serif" font-size="13" font-weight="bold" lengthAdjust="spacing" textLength="18" x="55" y="419.3191">alt</text><text fill="#000000" font-family="sans-serif" font-size="11" font-weight="bold" lengthAdjust="spacing" textLength="111" x="118" y="418.181">[Spieler-Liste = leer]</text><polygon fill="#A80036" points="93.5,443.8341,83.5,447.8341,93.5,451.8341,89.5,447.8341" style="stroke:#A80036;stroke-width:1.0;"/><line style="stroke:#A80036;stroke-width:1.0;" x1="87.5" x2="235.5" y1="447.8341" y2="447.8341"/><text fill="#000000" font-family="sans-serif" font-size="13" lengthAdjust="spacing" textLength="119" x="99.5" y="442.0251">return Spielabbruch</text><line style="stroke:#000000;stroke-width:1.0;stroke-dasharray:2.0,2.0;" x1="30" x2="484" y1="463.8341" y2="463.8341"/><polygon fill="#A80036" points="247.5,484.5401,237.5,488.5401,247.5,492.5401,243.5,488.5401" style="stroke:#A80036;stroke-width:1.0;"/><line style="stroke:#A80036;stroke-width:1.0;" x1="241.5" x2="440.5" y1="488.5401" y2="488.5401"/><text fill="#000000" font-family="sans-serif" font-size="13" lengthAdjust="spacing" textLength="24" x="253.5" y="482.7311">ACK</text><line style="stroke:#A80036;stroke-width:1.0;" x1="236.5" x2="278.5" y1="520.2461" y2="520.2461"/><line style="stroke:#A80036;stroke-width:1.0;" x1="278.5" x2="278.5" y1="520.2461" y2="533.2461"/><line style="stroke:#A80036;stroke-width:1.0;" x1="237.5" x2="278.5" y1="533.2461" y2="533.2461"/><polygon fill="#A80036" points="247.5,529.2461,237.5,533.2461,247.5,537.2461,243.5,533.2461" style="stroke:#A80036;stroke-width:1.0;"/><text fill="#000000" font-family="sans-serif" font-size="13" lengthAdjust="spacing" textLength="102" x="243.5" y="514.4371">Spieler registriert</text><path d="M30,562.2461 L103,562.2461 L103,571.2461 L93,581.2461 L30,581.2461 L30,562.2461 " fill="#EEEEEE" style="stroke:#000000;stroke-width:1.0;"/><rect fill="none" height="273.6481" style="stroke:#000000;stroke-width:2.0;" width="464" x="30" y="562.2461"/><text fill="#000000" font-family="sans-serif" font-size="13" font-weight="bold" lengthAdjust="spacing" textLength="28" x="45" y="577.1431">loop</text><text fill="#000000" font-family="sans-serif" font-size="11" font-weight="bold" lengthAdjust="spacing" textLength="114" x="118" y="576.005">[Dealen in 2 Runden]</text><path d="M40,588.9521 L113,588.9521 L113,597.9521 L103,607.9521 L40,607.9521 L40,588.9521 " fill="#EEEEEE" style="stroke:#000000;stroke-width:1.0;"/><rect fill="none" height="83.118" style="stroke:#000000;stroke-width:2.0;" width="444" x="40" y="588.9521"/><text fill="#000000" font-family="sans-serif" font-size="13" font-weight="bold" lengthAdjust="spacing" textLength="28" x="55" y="603.8492">loop</text><text fill="#000000" font-family="sans-serif" font-size="11" font-weight="bold" lengthAdjust="spacing" textLength="291" x="128" y="602.7111">[Spieler ohne Karte | Croupier hat noch keine Karte]</text><polygon fill="#A80036" points="429.5,628.3642,439.5,632.3642,429.5,636.3642,433.5,632.3642" style="stroke:#A80036;stroke-width:1.0;"/><line style="stroke:#A80036;stroke-width:1.0;" x1="82.5" x2="435.5" y1="632.3642" y2="632.3642"/><text fill="#000000" font-family="sans-serif" font-size="13" lengthAdjust="spacing" textLength="32" x="89.5" y="626.5552">Karte</text><polygon fill="#A80036" points="224.5,660.0702,234.5,664.0702,224.5,668.0702,228.5,664.0702" style="stroke:#A80036;stroke-width:1.0;"/><line style="stroke:#A80036;stroke-width:1.0;" x1="82.5" x2="230.5" y1="664.0702" y2="664.0702"/><text fill="#000000" font-family="sans-serif" font-size="13" lengthAdjust="spacing" textLength="127" x="89.5" y="658.2612">Statistik aktualisieren</text><path d="M40,686.0702 L103,686.0702 L103,695.0702 L93,705.0702 L40,705.0702 L40,686.0702 " fill="#EEEEEE" style="stroke:#000000;stroke-width:1.0;"/><rect fill="none" height="142.8241" style="stroke:#000000;stroke-width:2.0;" width="259" x="40" y="686.0702"/><text fill="#000000" font-family="sans-serif" font-size="13" font-weight="bold" lengthAdjust="spacing" textLength="18" x="55" y="700.9672">alt</text><text fill="#000000" font-family="sans-serif" font-size="11" font-weight="bold" lengthAdjust="spacing" textLength="64" x="118" y="699.8291">[Runde != 2]</text><line style="stroke:#A80036;stroke-width:1.0;" x1="82.5" x2="124.5" y1="729.4822" y2="729.4822"/><line style="stroke:#A80036;stroke-width:1.0;" x1="124.5" x2="124.5" y1="729.4822" y2="742.4822"/><line style="stroke:#A80036;stroke-width:1.0;" x1="83.5" x2="124.5" y1="742.4822" y2="742.4822"/><polygon fill="#A80036" points="93.5,738.4822,83.5,742.4822,93.5,746.4822,89.5,742.4822" style="stroke:#A80036;stroke-width:1.0;"/><text fill="#000000" font-family="sans-serif" font-size="13" lengthAdjust="spacing" textLength="95" x="89.5" y="723.6732">Karte (verdeckt)</text><polygon fill="#A80036" points="224.5,770.1882,234.5,774.1882,224.5,778.1882,228.5,774.1882" style="stroke:#A80036;stroke-width:1.0;"/><line style="stroke:#A80036;stroke-width:1.0;" x1="82.5" x2="230.5" y1="774.1882" y2="774.1882"/><text fill="#000000" font-family="sans-serif" font-size="13" lengthAdjust="spacing" textLength="127" x="89.5" y="768.3792">Statistik aktualisieren</text><line style="stroke:#000000;stroke-width:1.0;stroke-dasharray:2.0,2.0;" x1="40" x2="299" y1="783.1882" y2="783.1882"/><line style="stroke:#A80036;stroke-width:1.0;" x1="82.5" x2="124.5" y1="807.8943" y2="807.8943"/><line style="stroke:#A80036;stroke-width:1.0;" x1="124.5" x2="124.5" y1="807.8943" y2="820.8943"/><line style="stroke:#A80036;stroke-width:1.0;" x1="83.5" x2="124.5" y1="820.8943" y2="820.8943"/><polygon fill="#A80036" points="93.5,816.8943,83.5,820.8943,93.5,824.8943,89.5,820.8943" style="stroke:#A80036;stroke-width:1.0;"/><text fill="#000000" font-family="sans-serif" font-size="13" lengthAdjust="spacing" textLength="32" x="89.5" y="802.0853">Karte</text><line style="stroke:#000000;stroke-width:1.0;stroke-dasharray:2.0,2.0;" x1="10" x2="504" y1="843.8943" y2="843.8943"/><polygon fill="#A80036" points="429.5,864.6003,439.5,868.6003,429.5,872.6003,433.5,868.6003" style="stroke:#A80036;stroke-width:1.0;"/><line style="stroke:#A80036;stroke-width:1.0;" x1="82.5" x2="435.5" y1="868.6003" y2="868.6003"/><text fill="#000000" font-family="sans-serif" font-size="13" lengthAdjust="spacing" textLength="143" x="89.5" y="862.7913">warten auf Kartenzähler</text><!--MD5=[12c0f5d2579202c39d565fe301c1d9be]
@startuml

actor Croupier
participant Kartenzähler
participant Spieler

alt Boxinhaber signalisiert Spielstart && Kartenzähler registriert

    Croupier -> Kartenzähler : Spieler-Liste senden
    loop noch unregistrierte Spieler
        Kartenzähler -> Spieler : Registrierungsanfrage
        alt timeout
            Kartenzähler -> Croupier: Registrierung löschen
            Croupier -> Croupier: entfernt Spieler
            Croupier -> Kartenzähler: Spieler entfernt
            Kartenzähler -> Kartenzähler: entfernt Spieler aus Spieler-Liste
            alt Spieler-Liste = leer
                Kartenzähler -> Croupier: return Spielabbruch
            end
        else
            Spieler -> Kartenzähler : ACK
            Kartenzähler -> Kartenzähler: Spieler registriert
        end
    end

    loop Dealen in 2 Runden

        loop Spieler ohne Karte | Croupier hat noch keine Karte
                Croupier -> Spieler : Karte
                Croupier -> Kartenzähler: Statistik aktualisieren
        end
        alt Runde != 2
            Croupier -> Croupier: Karte (verdeckt)
            Croupier -> Kartenzähler: Statistik aktualisieren

        else
        Croupier -> Croupier: Karte
        end
    end

else
    Croupier -> Spieler: warten auf Kartenzähler
end

@enduml

PlantUML version 1.2021.00(Sun Jan 10 10:25:05 GMT 2021)
(MIT source distribution)
Java Runtime: OpenJDK Runtime Environment
JVM: OpenJDK 64-Bit Server VM
Default Encoding: UTF-8
Language: en
Country: GB
--></g></svg>