<?xml version="1.0" encoding="UTF-8" standalone="no"?><svg xmlns="http://www.w3.org/2000/svg" xmlns:xlink="http://www.w3.org/1999/xlink" contentScriptType="application/ecmascript" contentStyleType="text/css" height="360px" preserveAspectRatio="none" style="width:298px;height:360px;" version="1.1" viewBox="0 0 298 360" width="298px" zoomAndPan="magnify"><defs><filter height="300%" id="fig7hw6dwn6vn" width="300%" x="-1" y="-1"><feGaussianBlur result="blurOut" stdDeviation="2.0"/><feColorMatrix in="blurOut" result="blurOut2" type="matrix" values="0 0 0 0 0 0 0 0 0 0 0 0 0 0 0 0 0 0 .4 0"/><feOffset dx="4.0" dy="4.0" in="blurOut2" result="blurOut3"/><feBlend in="SourceGraphic" in2="blurOut3" mode="normal"/></filter></defs><g><rect fill="#FFFFFF" filter="url(#fig7hw6dwn6vn)" height="116.8241" style="stroke:#000000;stroke-width:2.0;" width="274" x="10" y="139.7739"/><rect fill="#FFFFFF" height="33.706" style="stroke:none;stroke-width:1.0;" width="274" x="10" y="222.892"/><line style="stroke:#A80036;stroke-width:1.0;stroke-dasharray:5.0,5.0;" x1="66" x2="66" y1="91.0679" y2="273.598"/><line style="stroke:#A80036;stroke-width:1.0;stroke-dasharray:5.0,5.0;" x1="235" x2="235" y1="91.0679" y2="273.598"/><text fill="#000000" font-family="sans-serif" font-size="14" lengthAdjust="spacing" textLength="87" x="20" y="86.9659">Kartenzähler</text><ellipse cx="66.5" cy="15" fill="#FEFECE" filter="url(#fig7hw6dwn6vn)" rx="8" ry="8" style="stroke:#A80036;stroke-width:2.0;"/><path d="M66.5,23 L66.5,50 M53.5,31 L79.5,31 M66.5,50 L53.5,65 M66.5,50 L79.5,65 " fill="none" filter="url(#fig7hw6dwn6vn)" style="stroke:#A80036;stroke-width:2.0;"/><text fill="#000000" font-family="sans-serif" font-size="14" lengthAdjust="spacing" textLength="87" x="20" y="287.5639">Kartenzähler</text><ellipse cx="66.5" cy="301.6659" fill="#FEFECE" filter="url(#fig7hw6dwn6vn)" rx="8" ry="8" style="stroke:#A80036;stroke-width:2.0;"/><path d="M66.5,309.6659 L66.5,336.6659 M53.5,317.6659 L79.5,317.6659 M66.5,336.6659 L53.5,351.6659 M66.5,336.6659 L79.5,351.6659 " fill="none" filter="url(#fig7hw6dwn6vn)" style="stroke:#A80036;stroke-width:2.0;"/><rect fill="#FEFECE" filter="url(#fig7hw6dwn6vn)" height="33.0679" style="stroke:#A80036;stroke-width:1.5;" width="73" x="197" y="53"/><text fill="#000000" font-family="sans-serif" font-size="14" lengthAdjust="spacing" textLength="59" x="204" y="74.9659">Croupier</text><rect fill="#FEFECE" filter="url(#fig7hw6dwn6vn)" height="33.0679" style="stroke:#A80036;stroke-width:1.5;" width="73" x="197" y="272.598"/><text fill="#000000" font-family="sans-serif" font-size="14" lengthAdjust="spacing" textLength="59" x="204" y="294.5639">Croupier</text><polygon fill="#A80036" points="223.5,120.7739,233.5,124.7739,223.5,128.7739,227.5,124.7739" style="stroke:#A80036;stroke-width:1.0;"/><line style="stroke:#A80036;stroke-width:1.0;" x1="66.5" x2="229.5" y1="124.7739" y2="124.7739"/><text fill="#000000" font-family="sans-serif" font-size="13" lengthAdjust="spacing" textLength="72" x="73.5" y="118.9649">Registrieren</text><path d="M10,139.7739 L73,139.7739 L73,148.7739 L63,158.7739 L10,158.7739 L10,139.7739 " fill="#EEEEEE" style="stroke:#000000;stroke-width:1.0;"/><rect fill="none" height="116.8241" style="stroke:#000000;stroke-width:2.0;" width="274" x="10" y="139.7739"/><text fill="#000000" font-family="sans-serif" font-size="13" font-weight="bold" lengthAdjust="spacing" textLength="18" x="25" y="154.6709">alt</text><text fill="#000000" font-family="sans-serif" font-size="11" font-weight="bold" lengthAdjust="spacing" textLength="184" x="88" y="153.5328">[Kartenzähler bereits registriert]</text><polygon fill="#A80036" points="77.5,179.186,67.5,183.186,77.5,187.186,73.5,183.186" style="stroke:#A80036;stroke-width:1.0;"/><line style="stroke:#A80036;stroke-width:1.0;" x1="71.5" x2="234.5" y1="183.186" y2="183.186"/><text fill="#000000" font-family="sans-serif" font-size="13" lengthAdjust="spacing" textLength="34" x="83.5" y="177.377">NACK</text><polygon fill="#A80036" points="77.5,210.892,67.5,214.892,77.5,218.892,73.5,214.892" style="stroke:#A80036;stroke-width:1.0;"/><line style="stroke:#A80036;stroke-width:1.0;" x1="71.5" x2="234.5" y1="214.892" y2="214.892"/><text fill="#000000" font-family="sans-serif" font-size="13" lengthAdjust="spacing" textLength="145" x="83.5" y="209.083">Kartenzähler vorhanden</text><line style="stroke:#000000;stroke-width:1.0;stroke-dasharray:2.0,2.0;" x1="10" x2="284" y1="223.892" y2="223.892"/><polygon fill="#A80036" points="223.5,244.598,233.5,248.598,223.5,252.598,227.5,248.598" style="stroke:#A80036;stroke-width:1.0;"/><line style="stroke:#A80036;stroke-width:1.0;" x1="66.5" x2="229.5" y1="248.598" y2="248.598"/><text fill="#000000" font-family="sans-serif" font-size="13" lengthAdjust="spacing" textLength="24" x="73.5" y="242.789">ACK</text><!--MD5=[b484f020f5e3a74290db7b948683122f]
@startuml
actor Kartenzähler
participant Croupier

Kartenzähler -> Croupier: Registrieren

alt Kartenzähler bereits registriert
    Croupier -> Kartenzähler: NACK
    Croupier -> Kartenzähler: Kartenzähler vorhanden
else
    Kartenzähler -> Croupier: ACK    
end
@enduml

PlantUML version 1.2021.00(Sun Jan 10 10:25:05 GMT 2021)
(MIT source distribution)
Java Runtime: OpenJDK Runtime Environment
JVM: OpenJDK 64-Bit Server VM
Default Encoding: UTF-8
Language: en
Country: GB
--></g></svg>