<?xml version="1.0" encoding="UTF-8" standalone="no"?><svg xmlns="http://www.w3.org/2000/svg" xmlns:xlink="http://www.w3.org/1999/xlink" contentScriptType="application/ecmascript" contentStyleType="text/css" height="639px" preserveAspectRatio="none" style="width:389px;height:639px;" version="1.1" viewBox="0 0 389 639" width="389px" zoomAndPan="magnify"><defs><filter height="300%" id="fzxody3vdqq2s" width="300%" x="-1" y="-1"><feGaussianBlur result="blurOut" stdDeviation="2.0"/><feColorMatrix in="blurOut" result="blurOut2" type="matrix" values="0 0 0 0 0 0 0 0 0 0 0 0 0 0 0 0 0 0 .4 0"/><feOffset dx="4.0" dy="4.0" in="blurOut2" result="blurOut3"/><feBlend in="SourceGraphic" in2="blurOut3" mode="normal"/></filter></defs><g><rect fill="#FFFFFF" filter="url(#fzxody3vdqq2s)" height="361.7481" style="stroke:#000000;stroke-width:2.0;" width="365" x="10" y="108.0679"/><rect fill="#FFFFFF" filter="url(#fzxody3vdqq2s)" height="165.512" style="stroke:#000000;stroke-width:2.0;" width="345" x="20" y="134.7739"/><rect fill="#FFFFFF" filter="url(#fzxody3vdqq2s)" height="100.0999" style="stroke:#000000;stroke-width:2.0;" width="325" x="30" y="193.186"/><rect fill="#FFFFFF" height="48.6879" style="stroke:none;stroke-width:1.0;" width="325" x="30" y="244.598"/><rect fill="#FFFFFF" filter="url(#fzxody3vdqq2s)" height="148.5301" style="stroke:#000000;stroke-width:2.0;" width="325" x="30" y="314.2859"/><rect fill="#FFFFFF" height="97.118" style="stroke:none;stroke-width:1.0;" width="325" x="30" y="365.6979"/><rect fill="#FFFFFF" filter="url(#fzxody3vdqq2s)" height="51.412" style="stroke:#000000;stroke-width:2.0;" width="160" x="30" y="483.816"/><line style="stroke:#A80036;stroke-width:1.0;stroke-dasharray:5.0,5.0;" x1="66" x2="66" y1="91.0679" y2="552.228"/><line style="stroke:#A80036;stroke-width:1.0;stroke-dasharray:5.0,5.0;" x1="141" x2="141" y1="91.0679" y2="552.228"/><line style="stroke:#A80036;stroke-width:1.0;stroke-dasharray:5.0,5.0;" x1="292" x2="292" y1="91.0679" y2="552.228"/><text fill="#000000" font-family="sans-serif" font-size="14" lengthAdjust="spacing" textLength="47" x="40" y="86.9659">Spieler</text><ellipse cx="66.5" cy="15" fill="#FEFECE" filter="url(#fzxody3vdqq2s)" rx="8" ry="8" style="stroke:#A80036;stroke-width:2.0;"/><path d="M66.5,23 L66.5,50 M53.5,31 L79.5,31 M66.5,50 L53.5,65 M66.5,50 L79.5,65 " fill="none" filter="url(#fzxody3vdqq2s)" style="stroke:#A80036;stroke-width:2.0;"/><text fill="#000000" font-family="sans-serif" font-size="14" lengthAdjust="spacing" textLength="47" x="40" y="566.194">Spieler</text><ellipse cx="66.5" cy="580.2959" fill="#FEFECE" filter="url(#fzxody3vdqq2s)" rx="8" ry="8" style="stroke:#A80036;stroke-width:2.0;"/><path d="M66.5,588.2959 L66.5,615.2959 M53.5,596.2959 L79.5,596.2959 M66.5,615.2959 L53.5,630.2959 M66.5,615.2959 L79.5,630.2959 " fill="none" filter="url(#fzxody3vdqq2s)" style="stroke:#A80036;stroke-width:2.0;"/><rect fill="#FEFECE" filter="url(#fzxody3vdqq2s)" height="33.0679" style="stroke:#A80036;stroke-width:1.5;" width="73" x="103" y="53"/><text fill="#000000" font-family="sans-serif" font-size="14" lengthAdjust="spacing" textLength="59" x="110" y="74.9659">Croupier</text><rect fill="#FEFECE" filter="url(#fzxody3vdqq2s)" height="33.0679" style="stroke:#A80036;stroke-width:1.5;" width="73" x="103" y="551.228"/><text fill="#000000" font-family="sans-serif" font-size="14" lengthAdjust="spacing" textLength="59" x="110" y="573.194">Croupier</text><rect fill="#FEFECE" filter="url(#fzxody3vdqq2s)" height="33.0679" style="stroke:#A80036;stroke-width:1.5;" width="101" x="240" y="53"/><text fill="#000000" font-family="sans-serif" font-size="14" lengthAdjust="spacing" textLength="87" x="247" y="74.9659">Kartenzähler</text><rect fill="#FEFECE" filter="url(#fzxody3vdqq2s)" height="33.0679" style="stroke:#A80036;stroke-width:1.5;" width="101" x="240" y="551.228"/><text fill="#000000" font-family="sans-serif" font-size="14" lengthAdjust="spacing" textLength="87" x="247" y="573.194">Kartenzähler</text><path d="M10,108.0679 L83,108.0679 L83,117.0679 L73,127.0679 L10,127.0679 L10,108.0679 " fill="#EEEEEE" style="stroke:#000000;stroke-width:1.0;"/><rect fill="none" height="361.7481" style="stroke:#000000;stroke-width:2.0;" width="365" x="10" y="108.0679"/><text fill="#000000" font-family="sans-serif" font-size="13" font-weight="bold" lengthAdjust="spacing" textLength="28" x="25" y="122.9649">loop</text><text fill="#000000" font-family="sans-serif" font-size="11" font-weight="bold" lengthAdjust="spacing" textLength="242" x="98" y="121.8268">[Punkte &lt;= 21 &amp;&amp; Spieler sendet kein Stand]</text><path d="M20,134.7739 L87,134.7739 L87,143.7739 L77,153.7739 L20,153.7739 L20,134.7739 " fill="#EEEEEE" style="stroke:#000000;stroke-width:1.0;"/><rect fill="none" height="165.512" style="stroke:#000000;stroke-width:2.0;" width="345" x="20" y="134.7739"/><text fill="#000000" font-family="sans-serif" font-size="13" font-weight="bold" lengthAdjust="spacing" textLength="22" x="35" y="149.6709">opt</text><text fill="#000000" font-family="sans-serif" font-size="11" font-weight="bold" lengthAdjust="spacing" textLength="128" x="102" y="148.5328">[Empfehlung abfragen]</text><polygon fill="#A80036" points="280.5,174.186,290.5,178.186,280.5,182.186,284.5,178.186" style="stroke:#A80036;stroke-width:1.0;"/><line style="stroke:#A80036;stroke-width:1.0;" x1="66.5" x2="286.5" y1="178.186" y2="178.186"/><text fill="#000000" font-family="sans-serif" font-size="13" lengthAdjust="spacing" textLength="130" x="73.5" y="172.377">Empfehlung anfragen</text><path d="M30,193.186 L93,193.186 L93,202.186 L83,212.186 L30,212.186 L30,193.186 " fill="#EEEEEE" style="stroke:#000000;stroke-width:1.0;"/><rect fill="none" height="100.0999" style="stroke:#000000;stroke-width:2.0;" width="325" x="30" y="193.186"/><text fill="#000000" font-family="sans-serif" font-size="13" font-weight="bold" lengthAdjust="spacing" textLength="18" x="45" y="208.083">alt</text><text fill="#000000" font-family="sans-serif" font-size="11" font-weight="bold" lengthAdjust="spacing" textLength="112" x="108" y="206.9449">[Empfehlung=Stand]</text><polygon fill="#A80036" points="77.5,232.598,67.5,236.598,77.5,240.598,73.5,236.598" style="stroke:#A80036;stroke-width:1.0;"/><line style="stroke:#A80036;stroke-width:1.0;" x1="71.5" x2="291.5" y1="236.598" y2="236.598"/><text fill="#000000" font-family="sans-serif" font-size="13" lengthAdjust="spacing" textLength="35" x="83.5" y="230.789">Stand</text><line style="stroke:#000000;stroke-width:1.0;stroke-dasharray:2.0,2.0;" x1="30" x2="355" y1="245.598" y2="245.598"/><text fill="#000000" font-family="sans-serif" font-size="11" font-weight="bold" lengthAdjust="spacing" textLength="96" x="35" y="257.3569">[Empfehlung=Hit]</text><polygon fill="#A80036" points="77.5,281.2859,67.5,285.2859,77.5,289.2859,73.5,285.2859" style="stroke:#A80036;stroke-width:1.0;"/><line style="stroke:#A80036;stroke-width:1.0;" x1="71.5" x2="291.5" y1="285.2859" y2="285.2859"/><text fill="#000000" font-family="sans-serif" font-size="13" lengthAdjust="spacing" textLength="97" x="83.5" y="279.4769">Empfehlung: Hit</text><path d="M30,314.2859 L93,314.2859 L93,323.2859 L83,333.2859 L30,333.2859 L30,314.2859 " fill="#EEEEEE" style="stroke:#000000;stroke-width:1.0;"/><rect fill="none" height="148.5301" style="stroke:#000000;stroke-width:2.0;" width="325" x="30" y="314.2859"/><text fill="#000000" font-family="sans-serif" font-size="13" font-weight="bold" lengthAdjust="spacing" textLength="18" x="45" y="329.1829">alt</text><text fill="#000000" font-family="sans-serif" font-size="11" font-weight="bold" lengthAdjust="spacing" textLength="123" x="108" y="328.0448">[Spieler sendet stand]</text><polygon fill="#A80036" points="129.5,353.6979,139.5,357.6979,129.5,361.6979,133.5,357.6979" style="stroke:#A80036;stroke-width:1.0;"/><line style="stroke:#A80036;stroke-width:1.0;" x1="66.5" x2="135.5" y1="357.6979" y2="357.6979"/><text fill="#000000" font-family="sans-serif" font-size="13" lengthAdjust="spacing" textLength="35" x="73.5" y="351.8889">Stand</text><line style="stroke:#000000;stroke-width:1.0;stroke-dasharray:2.0,2.0;" x1="30" x2="355" y1="366.6979" y2="366.6979"/><polygon fill="#A80036" points="129.5,387.404,139.5,391.404,129.5,395.404,133.5,391.404" style="stroke:#A80036;stroke-width:1.0;"/><line style="stroke:#A80036;stroke-width:1.0;" x1="66.5" x2="135.5" y1="391.404" y2="391.404"/><text fill="#000000" font-family="sans-serif" font-size="13" lengthAdjust="spacing" textLength="18" x="73.5" y="385.595">Hit</text><polygon fill="#A80036" points="77.5,419.11,67.5,423.11,77.5,427.11,73.5,423.11" style="stroke:#A80036;stroke-width:1.0;"/><line style="stroke:#A80036;stroke-width:1.0;" x1="71.5" x2="140.5" y1="423.11" y2="423.11"/><text fill="#000000" font-family="sans-serif" font-size="13" lengthAdjust="spacing" textLength="32" x="83.5" y="417.301">Karte</text><polygon fill="#A80036" points="280.5,450.816,290.5,454.816,280.5,458.816,284.5,454.816" style="stroke:#A80036;stroke-width:1.0;"/><line style="stroke:#A80036;stroke-width:1.0;" x1="141.5" x2="286.5" y1="454.816" y2="454.816"/><text fill="#000000" font-family="sans-serif" font-size="13" lengthAdjust="spacing" textLength="127" x="148.5" y="449.007">Statistik aktualisieren</text><path d="M30,483.816 L93,483.816 L93,492.816 L83,502.816 L30,502.816 L30,483.816 " fill="#EEEEEE" style="stroke:#000000;stroke-width:1.0;"/><rect fill="none" height="51.412" style="stroke:#000000;stroke-width:2.0;" width="160" x="30" y="483.816"/><text fill="#000000" font-family="sans-serif" font-size="13" font-weight="bold" lengthAdjust="spacing" textLength="18" x="45" y="498.713">alt</text><text fill="#000000" font-family="sans-serif" font-size="11" font-weight="bold" lengthAdjust="spacing" textLength="72" x="108" y="497.5749">[Punkte &gt; 21]</text><polygon fill="#A80036" points="77.5,523.228,67.5,527.228,77.5,531.228,73.5,527.228" style="stroke:#A80036;stroke-width:1.0;"/><line style="stroke:#A80036;stroke-width:1.0;" x1="71.5" x2="140.5" y1="527.228" y2="527.228"/><text fill="#000000" font-family="sans-serif" font-size="13" lengthAdjust="spacing" textLength="27" x="83.5" y="521.419">Bust</text><!--MD5=[d34de6a62e28204220771ca6a9bb8722]
@startuml Hit_And_Stand
actor Spieler
participant Croupier
participant Kartenzähler

loop Punkte <= 21 && Spieler sendet kein Stand
    opt Empfehlung abfragen
    Spieler -> Kartenzähler : Empfehlung anfragen
        alt Empfehlung=Stand
            Kartenzähler -> Spieler: Stand
        else Empfehlung=Hit
            Kartenzähler -> Spieler : Empfehlung: Hit
        end
    end
    alt Spieler sendet stand
    Spieler -> Croupier: Stand
    else
        Spieler -> Croupier : Hit
        Croupier -> Spieler : Karte
        Croupier -> Kartenzähler: Statistik aktualisieren
    end
end
alt Punkte > 21
    Croupier -> Spieler: Bust
end
@enduml

PlantUML version 1.2021.00(Sun Jan 10 10:25:05 GMT 2021)
(MIT source distribution)
Java Runtime: OpenJDK Runtime Environment
JVM: OpenJDK 64-Bit Server VM
Default Encoding: UTF-8
Language: en
Country: GB
--></g></svg>