<?xml version="1.0" encoding="UTF-8" standalone="no"?><svg xmlns="http://www.w3.org/2000/svg" xmlns:xlink="http://www.w3.org/1999/xlink" contentScriptType="application/ecmascript" contentStyleType="text/css" height="1709px" preserveAspectRatio="none" style="width:555px;height:1709px;" version="1.1" viewBox="0 0 555 1709" width="555px" zoomAndPan="magnify"><defs><filter height="300%" id="f1bqeo3fdy5v3t" width="300%" x="-1" y="-1"><feGaussianBlur result="blurOut" stdDeviation="2.0"/><feColorMatrix in="blurOut" result="blurOut2" type="matrix" values="0 0 0 0 0 0 0 0 0 0 0 0 0 0 0 0 0 0 .4 0"/><feOffset dx="4.0" dy="4.0" in="blurOut2" result="blurOut3"/><feBlend in="SourceGraphic" in2="blurOut3" mode="normal"/></filter></defs><g><ellipse cx="283.75" cy="20" fill="#000000" filter="url(#f1bqeo3fdy5v3t)" rx="10" ry="10" style="stroke:none;stroke-width:1.0;"/><rect fill="#FFFFFF" filter="url(#f1bqeo3fdy5v3t)" height="464.4444" style="stroke:#000000;stroke-width:2.0;" width="527.5" x="11" y="40"/><path d="M243,40 L243,52.0679 L233,62.0679 L11,62.0679 " fill="none" style="stroke:#000000;stroke-width:2.0;"/><text fill="#000000" font-family="sans-serif" font-size="14" lengthAdjust="spacing" textLength="222" x="14" y="55.9659">Registrierung beim Kartenzähler</text><rect fill="#FEFECE" filter="url(#f1bqeo3fdy5v3t)" height="36.3441" rx="12.5" ry="12.5" style="stroke:#A80036;stroke-width:1.5;" width="218" x="174.75" y="79.0679"/><text fill="#000000" font-family="sans-serif" font-size="12" lengthAdjust="spacing" textLength="198" x="184.75" y="101.896">Spielerliste an Kartenzähler senden</text><rect fill="#FEFECE" filter="url(#f1bqeo3fdy5v3t)" height="36.3441" rx="12.5" ry="12.5" style="stroke:#A80036;stroke-width:1.5;" width="238" x="164.75" y="179.412"/><text fill="#000000" font-family="sans-serif" font-size="12" lengthAdjust="spacing" textLength="218" x="174.75" y="202.2401">Kartenzähler registriert sich bei Spieler</text><polygon fill="#FEFECE" filter="url(#f1bqeo3fdy5v3t)" points="217.25,235.7561,350.25,235.7561,362.25,247.7561,350.25,259.7561,217.25,259.7561,205.25,247.7561,217.25,235.7561" style="stroke:#A80036;stroke-width:1.5;"/><text fill="#000000" font-family="sans-serif" font-size="11" lengthAdjust="spacing" textLength="133" x="217.25" y="252.0241">Registrierung erfolgreich</text><text fill="#000000" font-family="sans-serif" font-size="11" lengthAdjust="spacing" textLength="23" x="182.25" y="244.5332">nein</text><text fill="#000000" font-family="sans-serif" font-size="11" lengthAdjust="spacing" textLength="9" x="362.25" y="244.5332">ja</text><rect fill="#FEFECE" filter="url(#f1bqeo3fdy5v3t)" height="36.3441" rx="12.5" ry="12.5" style="stroke:#A80036;stroke-width:1.5;" width="159" x="78.5" y="269.7561"/><text fill="#000000" font-family="sans-serif" font-size="12" lengthAdjust="spacing" textLength="139" x="88.5" y="292.5842">Croupier entfernt Spieler</text><rect fill="#FEFECE" filter="url(#f1bqeo3fdy5v3t)" height="36.3441" rx="12.5" ry="12.5" style="stroke:#A80036;stroke-width:1.5;" width="270" x="23" y="326.1003"/><text fill="#000000" font-family="sans-serif" font-size="12" lengthAdjust="spacing" textLength="250" x="33" y="348.9283">Kartenzähler entfernt Spieler aus Spielerliste</text><polygon fill="#FEFECE" filter="url(#f1bqeo3fdy5v3t)" points="116.5,382.4444,199.5,382.4444,211.5,394.4444,199.5,406.4444,116.5,406.4444,104.5,394.4444,116.5,382.4444" style="stroke:#A80036;stroke-width:1.5;"/><text fill="#000000" font-family="sans-serif" font-size="11" lengthAdjust="spacing" textLength="83" x="116.5" y="398.7123">Spielerliste=leer</text><text fill="#000000" font-family="sans-serif" font-size="11" lengthAdjust="spacing" textLength="9" x="211.5" y="391.2214">ja</text><ellipse cx="244.5" cy="394.4444" fill="#FFFFFF" filter="url(#f1bqeo3fdy5v3t)" rx="11" ry="11" style="stroke:#000000;stroke-width:1.0;"/><ellipse cx="244.5" cy="394.4444" fill="#000000" rx="6" ry="6" style="stroke:#7F7F7F;stroke-width:1.0;"/><rect fill="#FEFECE" filter="url(#f1bqeo3fdy5v3t)" height="36.3441" rx="12.5" ry="12.5" style="stroke:#A80036;stroke-width:1.5;" width="193" x="313" y="269.7561"/><text fill="#000000" font-family="sans-serif" font-size="12" lengthAdjust="spacing" textLength="173" x="323" y="292.5842">Kartenzähler registriert Spieler</text><polygon fill="#FEFECE" filter="url(#f1bqeo3fdy5v3t)" points="283.75,416.4444,295.75,428.4444,283.75,440.4444,271.75,428.4444,283.75,416.4444" style="stroke:#A80036;stroke-width:1.5;"/><polygon fill="#FEFECE" filter="url(#f1bqeo3fdy5v3t)" points="283.75,135.412,295.75,147.412,283.75,159.412,271.75,147.412,283.75,135.412" style="stroke:#A80036;stroke-width:1.5;"/><polygon fill="#FEFECE" filter="url(#f1bqeo3fdy5v3t)" points="190.25,460.4444,377.25,460.4444,389.25,472.4444,377.25,484.4444,190.25,484.4444,178.25,472.4444,190.25,460.4444" style="stroke:#A80036;stroke-width:1.5;"/><text fill="#000000" font-family="sans-serif" font-size="11" lengthAdjust="spacing" textLength="9" x="287.75" y="496.2033">ja</text><text fill="#000000" font-family="sans-serif" font-size="11" lengthAdjust="spacing" textLength="187" x="190.25" y="476.7123">Alle Spieler in Spielerliste registriert</text><text fill="#000000" font-family="sans-serif" font-size="11" lengthAdjust="spacing" textLength="23" x="389.25" y="469.2214">nein</text><rect fill="#FFFFFF" filter="url(#f1bqeo3fdy5v3t)" height="525.2033" style="stroke:#000000;stroke-width:2.0;" width="475.5" x="42.5" y="514.4444"/><path d="M160.5,514.4444 L160.5,526.5123 L150.5,536.5123 L42.5,536.5123 " fill="none" style="stroke:#000000;stroke-width:2.0;"/><text fill="#000000" font-family="sans-serif" font-size="14" lengthAdjust="spacing" textLength="108" x="45.5" y="530.4103">Karten verteilen</text><rect fill="#FEFECE" filter="url(#f1bqeo3fdy5v3t)" height="36.3441" rx="12.5" ry="12.5" style="stroke:#A80036;stroke-width:1.5;" width="163" x="202.25" y="641.5123"/><text fill="#000000" font-family="sans-serif" font-size="12" lengthAdjust="spacing" textLength="143" x="212.25" y="664.3404">Karte an Spieler austeilen</text><rect fill="#FEFECE" filter="url(#f1bqeo3fdy5v3t)" height="36.3441" rx="12.5" ry="12.5" style="stroke:#A80036;stroke-width:1.5;" width="106" x="230.75" y="705.3564"/><text fill="#000000" font-family="sans-serif" font-size="12" lengthAdjust="spacing" textLength="86" x="240.75" y="728.1845">update Statistik</text><polygon fill="#FEFECE" filter="url(#f1bqeo3fdy5v3t)" points="283.75,597.5123,295.75,609.5123,283.75,621.5123,271.75,609.5123,283.75,597.5123" style="stroke:#A80036;stroke-width:1.5;"/><polygon fill="#FEFECE" filter="url(#f1bqeo3fdy5v3t)" points="209.25,761.7005,358.25,761.7005,370.25,773.7005,358.25,785.7005,209.25,785.7005,197.25,773.7005,209.25,761.7005" style="stroke:#A80036;stroke-width:1.5;"/><text fill="#000000" font-family="sans-serif" font-size="11" lengthAdjust="spacing" textLength="9" x="287.75" y="797.4594">ja</text><text fill="#000000" font-family="sans-serif" font-size="11" lengthAdjust="spacing" textLength="149" x="209.25" y="777.9685">alle Spieler haben eine Karte</text><text fill="#000000" font-family="sans-serif" font-size="11" lengthAdjust="spacing" textLength="23" x="370.25" y="770.4775">nein</text><polygon fill="#FEFECE" filter="url(#f1bqeo3fdy5v3t)" points="219.25,818.9594,348.25,818.9594,360.25,830.9594,348.25,842.9594,219.25,842.9594,207.25,830.9594,219.25,818.9594" style="stroke:#A80036;stroke-width:1.5;"/><text fill="#000000" font-family="sans-serif" font-size="11" lengthAdjust="spacing" textLength="129" x="219.25" y="835.2274">Croupier hat keine Karte</text><text fill="#000000" font-family="sans-serif" font-size="11" lengthAdjust="spacing" textLength="9" x="198.25" y="827.7365">ja</text><text fill="#000000" font-family="sans-serif" font-size="11" lengthAdjust="spacing" textLength="23" x="360.25" y="827.7365">nein</text><rect fill="#FEFECE" filter="url(#f1bqeo3fdy5v3t)" height="36.3441" rx="12.5" ry="12.5" style="stroke:#A80036;stroke-width:1.5;" width="224" x="62.5" y="852.9594"/><text fill="#000000" font-family="sans-serif" font-size="12" lengthAdjust="spacing" textLength="204" x="72.5" y="875.7875">Karte an Croupier verdeckt austeilen</text><rect fill="#FEFECE" filter="url(#f1bqeo3fdy5v3t)" height="36.3441" rx="12.5" ry="12.5" style="stroke:#A80036;stroke-width:1.5;" width="106" x="121.5" y="909.3035"/><text fill="#000000" font-family="sans-serif" font-size="12" lengthAdjust="spacing" textLength="86" x="131.5" y="932.1316">update Statistik</text><rect fill="#FEFECE" filter="url(#f1bqeo3fdy5v3t)" height="36.3441" rx="12.5" ry="12.5" style="stroke:#A80036;stroke-width:1.5;" width="173" x="306.5" y="852.9594"/><text fill="#000000" font-family="sans-serif" font-size="12" lengthAdjust="spacing" textLength="153" x="316.5" y="875.7875">Karte an Croupier austeilen</text><polygon fill="#FEFECE" filter="url(#f1bqeo3fdy5v3t)" points="283.75,951.6477,295.75,963.6477,283.75,975.6477,271.75,963.6477,283.75,951.6477" style="stroke:#A80036;stroke-width:1.5;"/><polygon fill="#FEFECE" filter="url(#f1bqeo3fdy5v3t)" points="283.75,553.5123,295.75,565.5123,283.75,577.5123,271.75,565.5123,283.75,553.5123" style="stroke:#A80036;stroke-width:1.5;"/><polygon fill="#FEFECE" filter="url(#f1bqeo3fdy5v3t)" points="213.75,995.6477,353.75,995.6477,365.75,1007.6477,353.75,1019.6477,213.75,1019.6477,201.75,1007.6477,213.75,995.6477" style="stroke:#A80036;stroke-width:1.5;"/><text fill="#000000" font-family="sans-serif" font-size="11" lengthAdjust="spacing" textLength="9" x="287.75" y="1031.4066">ja</text><text fill="#000000" font-family="sans-serif" font-size="11" lengthAdjust="spacing" textLength="140" x="213.75" y="1011.9156">alle Spieler haben 2 Karten</text><text fill="#000000" font-family="sans-serif" font-size="11" lengthAdjust="spacing" textLength="23" x="365.75" y="1004.4247">nein</text><rect fill="#FFFFFF" filter="url(#f1bqeo3fdy5v3t)" height="257.2471" style="stroke:#000000;stroke-width:2.0;" width="252" x="168.25" y="1049.6477"/><path d="M239.25,1049.6477 L239.25,1061.7156 L229.25,1071.7156 L168.25,1071.7156 " fill="none" style="stroke:#000000;stroke-width:2.0;"/><text fill="#000000" font-family="sans-serif" font-size="14" lengthAdjust="spacing" textLength="61" x="171.25" y="1065.6136">BlackJack</text><rect fill="#FEFECE" filter="url(#f1bqeo3fdy5v3t)" height="36.3441" rx="12.5" ry="12.5" style="stroke:#A80036;stroke-width:1.5;" width="121" x="223.25" y="1138.2065"/><text fill="#000000" font-family="sans-serif" font-size="12" lengthAdjust="spacing" textLength="101" x="233.25" y="1161.0346">Gewinne verteilen</text><rect fill="#FEFECE" filter="url(#f1bqeo3fdy5v3t)" height="36.3441" rx="12.5" ry="12.5" style="stroke:#A80036;stroke-width:1.5;" width="106" x="230.75" y="1194.5506"/><text fill="#000000" font-family="sans-serif" font-size="12" lengthAdjust="spacing" textLength="86" x="240.75" y="1217.3787">update Statistik</text><ellipse cx="283.75" cy="1261.8947" fill="#FFFFFF" filter="url(#f1bqeo3fdy5v3t)" rx="11" ry="11" style="stroke:#000000;stroke-width:1.0;"/><ellipse cx="283.75" cy="1261.8947" fill="#000000" rx="6" ry="6" style="stroke:#7F7F7F;stroke-width:1.0;"/><polygon fill="#FEFECE" filter="url(#f1bqeo3fdy5v3t)" points="190.25,1088.7156,377.25,1088.7156,389.25,1100.7156,377.25,1112.7156,190.25,1112.7156,178.25,1100.7156,190.25,1088.7156" style="stroke:#A80036;stroke-width:1.5;"/><text fill="#000000" font-family="sans-serif" font-size="11" lengthAdjust="spacing" textLength="9" x="287.75" y="1124.4745">ja</text><text fill="#000000" font-family="sans-serif" font-size="11" lengthAdjust="spacing" textLength="187" x="190.25" y="1104.9835">Spieler oder Croupier hat black jack</text><text fill="#000000" font-family="sans-serif" font-size="11" lengthAdjust="spacing" textLength="23" x="389.25" y="1097.4926">nein</text><rect fill="#FFFFFF" filter="url(#f1bqeo3fdy5v3t)" height="333.2471" style="stroke:#000000;stroke-width:2.0;" width="256" x="167.75" y="1316.8947"/><path d="M274.75,1316.8947 L274.75,1328.9627 L264.75,1338.9627 L167.75,1338.9627 " fill="none" style="stroke:#000000;stroke-width:2.0;"/><text fill="#000000" font-family="sans-serif" font-size="14" lengthAdjust="spacing" textLength="97" x="170.75" y="1332.8607">late surrender</text><rect fill="#FEFECE" filter="url(#f1bqeo3fdy5v3t)" height="36.3441" rx="12.5" ry="12.5" style="stroke:#A80036;stroke-width:1.5;" width="116" x="225.75" y="1449.4536"/><text fill="#000000" font-family="sans-serif" font-size="12" lengthAdjust="spacing" textLength="96" x="235.75" y="1472.2817">Spieler bust=true</text><polygon fill="#FEFECE" filter="url(#f1bqeo3fdy5v3t)" points="256.75,1399.9627,310.75,1399.9627,322.75,1411.9627,310.75,1423.9627,256.75,1423.9627,244.75,1411.9627,256.75,1399.9627" style="stroke:#A80036;stroke-width:1.5;"/><text fill="#000000" font-family="sans-serif" font-size="11" lengthAdjust="spacing" textLength="9" x="287.75" y="1435.7216">ja</text><text fill="#000000" font-family="sans-serif" font-size="11" lengthAdjust="spacing" textLength="54" x="256.75" y="1416.2306">Surrender</text><text fill="#000000" font-family="sans-serif" font-size="11" lengthAdjust="spacing" textLength="23" x="322.75" y="1408.7397">nein</text><polygon fill="#FEFECE" filter="url(#f1bqeo3fdy5v3t)" points="283.75,1505.7977,295.75,1517.7977,283.75,1529.7977,271.75,1517.7977,283.75,1505.7977" style="stroke:#A80036;stroke-width:1.5;"/><rect fill="#FEFECE" filter="url(#f1bqeo3fdy5v3t)" height="36.3441" rx="12.5" ry="12.5" style="stroke:#A80036;stroke-width:1.5;" width="171" x="198.25" y="1549.7977"/><text fill="#000000" font-family="sans-serif" font-size="12" lengthAdjust="spacing" textLength="151" x="208.25" y="1572.6258">Surrender abgefragt = true</text><polygon fill="#FEFECE" filter="url(#f1bqeo3fdy5v3t)" points="283.75,1355.9627,295.75,1367.9627,283.75,1379.9627,271.75,1367.9627,283.75,1355.9627" style="stroke:#A80036;stroke-width:1.5;"/><polygon fill="#FEFECE" filter="url(#f1bqeo3fdy5v3t)" points="189.75,1606.1418,377.75,1606.1418,389.75,1618.1418,377.75,1630.1418,189.75,1630.1418,177.75,1618.1418,189.75,1606.1418" style="stroke:#A80036;stroke-width:1.5;"/><text fill="#000000" font-family="sans-serif" font-size="11" lengthAdjust="spacing" textLength="9" x="287.75" y="1641.9008">ja</text><text fill="#000000" font-family="sans-serif" font-size="11" lengthAdjust="spacing" textLength="188" x="189.75" y="1622.4098">Surrender für alle Spieler abgefragt</text><text fill="#000000" font-family="sans-serif" font-size="11" lengthAdjust="spacing" textLength="23" x="389.75" y="1614.9189">nein</text><ellipse cx="283.75" cy="1681.1418" fill="#FFFFFF" filter="url(#f1bqeo3fdy5v3t)" rx="11" ry="11" style="stroke:#000000;stroke-width:1.0;"/><ellipse cx="283.75" cy="1681.1418" fill="#000000" rx="6" ry="6" style="stroke:#7F7F7F;stroke-width:1.0;"/><line style="stroke:#A80036;stroke-width:1.5;" x1="158" x2="158" y1="306.1003" y2="326.1003"/><polygon fill="#A80036" points="154,316.1003,158,326.1003,162,316.1003,158,320.1003" style="stroke:#A80036;stroke-width:1.0;"/><line style="stroke:#A80036;stroke-width:1.5;" x1="158" x2="158" y1="406.4444" y2="428.4444"/><line style="stroke:#A80036;stroke-width:1.5;" x1="158" x2="271.75" y1="428.4444" y2="428.4444"/><polygon fill="#A80036" points="261.75,424.4444,271.75,428.4444,261.75,432.4444,265.75,428.4444" style="stroke:#A80036;stroke-width:1.0;"/><line style="stroke:#A80036;stroke-width:1.5;" x1="211.5" x2="233.5" y1="394.4444" y2="394.4444"/><polygon fill="#A80036" points="223.5,390.4444,233.5,394.4444,223.5,398.4444,227.5,394.4444" style="stroke:#A80036;stroke-width:1.0;"/><line style="stroke:#A80036;stroke-width:1.5;" x1="158" x2="158" y1="362.4444" y2="382.4444"/><polygon fill="#A80036" points="154,372.4444,158,382.4444,162,372.4444,158,376.4444" style="stroke:#A80036;stroke-width:1.0;"/><line style="stroke:#A80036;stroke-width:1.5;" x1="205.25" x2="158" y1="247.7561" y2="247.7561"/><line style="stroke:#A80036;stroke-width:1.5;" x1="158" x2="158" y1="247.7561" y2="269.7561"/><polygon fill="#A80036" points="154,259.7561,158,269.7561,162,259.7561,158,263.7561" style="stroke:#A80036;stroke-width:1.0;"/><line style="stroke:#A80036;stroke-width:1.5;" x1="362.25" x2="409.5" y1="247.7561" y2="247.7561"/><line style="stroke:#A80036;stroke-width:1.5;" x1="409.5" x2="409.5" y1="247.7561" y2="269.7561"/><polygon fill="#A80036" points="405.5,259.7561,409.5,269.7561,413.5,259.7561,409.5,263.7561" style="stroke:#A80036;stroke-width:1.0;"/><line style="stroke:#A80036;stroke-width:1.5;" x1="409.5" x2="409.5" y1="306.1003" y2="428.4444"/><line style="stroke:#A80036;stroke-width:1.5;" x1="409.5" x2="295.75" y1="428.4444" y2="428.4444"/><polygon fill="#A80036" points="305.75,424.4444,295.75,428.4444,305.75,432.4444,301.75,428.4444" style="stroke:#A80036;stroke-width:1.0;"/><line style="stroke:#A80036;stroke-width:1.5;" x1="283.75" x2="283.75" y1="215.7561" y2="235.7561"/><polygon fill="#A80036" points="279.75,225.7561,283.75,235.7561,287.75,225.7561,283.75,229.7561" style="stroke:#A80036;stroke-width:1.0;"/><line style="stroke:#A80036;stroke-width:1.5;" x1="283.75" x2="283.75" y1="159.412" y2="179.412"/><polygon fill="#A80036" points="279.75,169.412,283.75,179.412,287.75,169.412,283.75,173.412" style="stroke:#A80036;stroke-width:1.0;"/><line style="stroke:#A80036;stroke-width:1.5;" x1="389.25" x2="522.5" y1="472.4444" y2="472.4444"/><polygon fill="#A80036" points="518.5,334.4282,522.5,324.4282,526.5,334.4282,522.5,330.4282" style="stroke:#A80036;stroke-width:1.5;"/><line style="stroke:#A80036;stroke-width:1.5;" x1="522.5" x2="522.5" y1="147.412" y2="472.4444"/><line style="stroke:#A80036;stroke-width:1.5;" x1="522.5" x2="295.75" y1="147.412" y2="147.412"/><polygon fill="#A80036" points="305.75,143.412,295.75,147.412,305.75,151.412,301.75,147.412" style="stroke:#A80036;stroke-width:1.0;"/><line style="stroke:#A80036;stroke-width:1.5;" x1="283.75" x2="283.75" y1="440.4444" y2="460.4444"/><polygon fill="#A80036" points="279.75,450.4444,283.75,460.4444,287.75,450.4444,283.75,454.4444" style="stroke:#A80036;stroke-width:1.0;"/><line style="stroke:#A80036;stroke-width:1.5;" x1="283.75" x2="283.75" y1="115.412" y2="135.412"/><polygon fill="#A80036" points="279.75,125.412,283.75,135.412,287.75,125.412,283.75,129.412" style="stroke:#A80036;stroke-width:1.0;"/><line style="stroke:#A80036;stroke-width:1.5;" x1="283.75" x2="283.75" y1="30" y2="79.0679"/><polygon fill="#A80036" points="279.75,69.0679,283.75,79.0679,287.75,69.0679,283.75,73.0679" style="stroke:#A80036;stroke-width:1.0;"/><line style="stroke:#A80036;stroke-width:1.5;" x1="283.75" x2="283.75" y1="677.8564" y2="705.3564"/><polygon fill="#A80036" points="279.75,695.3564,283.75,705.3564,287.75,695.3564,283.75,699.3564" style="stroke:#A80036;stroke-width:1.0;"/><line style="stroke:#A80036;stroke-width:1.5;" x1="283.75" x2="283.75" y1="621.5123" y2="641.5123"/><polygon fill="#A80036" points="279.75,631.5123,283.75,641.5123,287.75,631.5123,283.75,635.5123" style="stroke:#A80036;stroke-width:1.0;"/><line style="stroke:#A80036;stroke-width:1.5;" x1="370.25" x2="382.25" y1="773.7005" y2="773.7005"/><polygon fill="#A80036" points="378.25,697.8564,382.25,687.8564,386.25,697.8564,382.25,693.8564" style="stroke:#A80036;stroke-width:1.5;"/><line style="stroke:#A80036;stroke-width:1.5;" x1="382.25" x2="382.25" y1="609.5123" y2="773.7005"/><line style="stroke:#A80036;stroke-width:1.5;" x1="382.25" x2="295.75" y1="609.5123" y2="609.5123"/><polygon fill="#A80036" points="305.75,605.5123,295.75,609.5123,305.75,613.5123,301.75,609.5123" style="stroke:#A80036;stroke-width:1.0;"/><line style="stroke:#A80036;stroke-width:1.5;" x1="283.75" x2="283.75" y1="741.7005" y2="761.7005"/><polygon fill="#A80036" points="279.75,751.7005,283.75,761.7005,287.75,751.7005,283.75,755.7005" style="stroke:#A80036;stroke-width:1.0;"/><line style="stroke:#A80036;stroke-width:1.5;" x1="174.5" x2="174.5" y1="889.3035" y2="909.3035"/><polygon fill="#A80036" points="170.5,899.3035,174.5,909.3035,178.5,899.3035,174.5,903.3035" style="stroke:#A80036;stroke-width:1.0;"/><line style="stroke:#A80036;stroke-width:1.5;" x1="207.25" x2="174.5" y1="830.9594" y2="830.9594"/><line style="stroke:#A80036;stroke-width:1.5;" x1="174.5" x2="174.5" y1="830.9594" y2="852.9594"/><polygon fill="#A80036" points="170.5,842.9594,174.5,852.9594,178.5,842.9594,174.5,846.9594" style="stroke:#A80036;stroke-width:1.0;"/><line style="stroke:#A80036;stroke-width:1.5;" x1="360.25" x2="393" y1="830.9594" y2="830.9594"/><line style="stroke:#A80036;stroke-width:1.5;" x1="393" x2="393" y1="830.9594" y2="852.9594"/><polygon fill="#A80036" points="389,842.9594,393,852.9594,397,842.9594,393,846.9594" style="stroke:#A80036;stroke-width:1.0;"/><line style="stroke:#A80036;stroke-width:1.5;" x1="174.5" x2="174.5" y1="945.6477" y2="963.6477"/><line style="stroke:#A80036;stroke-width:1.5;" x1="174.5" x2="271.75" y1="963.6477" y2="963.6477"/><polygon fill="#A80036" points="261.75,959.6477,271.75,963.6477,261.75,967.6477,265.75,963.6477" style="stroke:#A80036;stroke-width:1.0;"/><line style="stroke:#A80036;stroke-width:1.5;" x1="393" x2="393" y1="889.3035" y2="963.6477"/><line style="stroke:#A80036;stroke-width:1.5;" x1="393" x2="295.75" y1="963.6477" y2="963.6477"/><polygon fill="#A80036" points="305.75,959.6477,295.75,963.6477,305.75,967.6477,301.75,963.6477" style="stroke:#A80036;stroke-width:1.0;"/><line style="stroke:#A80036;stroke-width:1.5;" x1="283.75" x2="283.75" y1="785.7005" y2="818.9594"/><polygon fill="#A80036" points="279.75,808.9594,283.75,818.9594,287.75,808.9594,283.75,812.9594" style="stroke:#A80036;stroke-width:1.0;"/><line style="stroke:#A80036;stroke-width:1.5;" x1="283.75" x2="283.75" y1="577.5123" y2="597.5123"/><polygon fill="#A80036" points="279.75,587.5123,283.75,597.5123,287.75,587.5123,283.75,591.5123" style="stroke:#A80036;stroke-width:1.0;"/><line style="stroke:#A80036;stroke-width:1.5;" x1="365.75" x2="501.5" y1="1007.6477" y2="1007.6477"/><polygon fill="#A80036" points="497.5,773.2005,501.5,763.2005,505.5,773.2005,501.5,769.2005" style="stroke:#A80036;stroke-width:1.5;"/><line style="stroke:#A80036;stroke-width:1.5;" x1="501.5" x2="501.5" y1="565.5123" y2="1007.6477"/><line style="stroke:#A80036;stroke-width:1.5;" x1="501.5" x2="295.75" y1="565.5123" y2="565.5123"/><polygon fill="#A80036" points="305.75,561.5123,295.75,565.5123,305.75,569.5123,301.75,565.5123" style="stroke:#A80036;stroke-width:1.0;"/><line style="stroke:#A80036;stroke-width:1.5;" x1="283.75" x2="283.75" y1="975.6477" y2="995.6477"/><polygon fill="#A80036" points="279.75,985.6477,283.75,995.6477,287.75,985.6477,283.75,989.6477" style="stroke:#A80036;stroke-width:1.0;"/><line style="stroke:#A80036;stroke-width:1.5;" x1="283.75" x2="283.75" y1="484.4444" y2="553.5123"/><polygon fill="#A80036" points="279.75,543.5123,283.75,553.5123,287.75,543.5123,283.75,547.5123" style="stroke:#A80036;stroke-width:1.0;"/><line style="stroke:#A80036;stroke-width:1.5;" x1="283.75" x2="283.75" y1="1174.5506" y2="1194.5506"/><polygon fill="#A80036" points="279.75,1184.5506,283.75,1194.5506,287.75,1184.5506,283.75,1188.5506" style="stroke:#A80036;stroke-width:1.0;"/><line style="stroke:#A80036;stroke-width:1.5;" x1="283.75" x2="283.75" y1="1230.8947" y2="1250.8947"/><polygon fill="#A80036" points="279.75,1240.8947,283.75,1250.8947,287.75,1240.8947,283.75,1244.8947" style="stroke:#A80036;stroke-width:1.0;"/><line style="stroke:#A80036;stroke-width:1.5;" x1="283.75" x2="283.75" y1="1112.7156" y2="1138.2065"/><polygon fill="#A80036" points="279.75,1128.2065,283.75,1138.2065,287.75,1128.2065,283.75,1132.2065" style="stroke:#A80036;stroke-width:1.0;"/><line style="stroke:#A80036;stroke-width:1.5;" x1="389.25" x2="401.25" y1="1100.7156" y2="1100.7156"/><polygon fill="#A80036" points="397.25,1192.5506,401.25,1202.5506,405.25,1192.5506,401.25,1196.5506" style="stroke:#A80036;stroke-width:1.5;"/><line style="stroke:#A80036;stroke-width:1.5;" x1="401.25" x2="401.25" y1="1100.7156" y2="1294.8947"/><line style="stroke:#A80036;stroke-width:1.5;" x1="401.25" x2="283.75" y1="1294.8947" y2="1294.8947"/><line style="stroke:#A80036;stroke-width:1.5;" x1="283.75" x2="283.75" y1="1294.8947" y2="1355.9627"/><polygon fill="#A80036" points="279.75,1345.9627,283.75,1355.9627,287.75,1345.9627,283.75,1349.9627" style="stroke:#A80036;stroke-width:1.0;"/><line style="stroke:#A80036;stroke-width:1.5;" x1="283.75" x2="283.75" y1="1019.6477" y2="1088.7156"/><polygon fill="#A80036" points="279.75,1078.7156,283.75,1088.7156,287.75,1078.7156,283.75,1082.7156" style="stroke:#A80036;stroke-width:1.0;"/><line style="stroke:#A80036;stroke-width:1.5;" x1="283.75" x2="283.75" y1="1423.9627" y2="1449.4536"/><polygon fill="#A80036" points="279.75,1439.4536,283.75,1449.4536,287.75,1439.4536,283.75,1443.4536" style="stroke:#A80036;stroke-width:1.0;"/><line style="stroke:#A80036;stroke-width:1.5;" x1="322.75" x2="351.75" y1="1411.9627" y2="1411.9627"/><polygon fill="#A80036" points="347.75,1457.6257,351.75,1467.6257,355.75,1457.6257,351.75,1461.6257" style="stroke:#A80036;stroke-width:1.5;"/><line style="stroke:#A80036;stroke-width:1.5;" x1="351.75" x2="351.75" y1="1411.9627" y2="1517.7977"/><line style="stroke:#A80036;stroke-width:1.5;" x1="351.75" x2="295.75" y1="1517.7977" y2="1517.7977"/><polygon fill="#A80036" points="305.75,1513.7977,295.75,1517.7977,305.75,1521.7977,301.75,1517.7977" style="stroke:#A80036;stroke-width:1.0;"/><line style="stroke:#A80036;stroke-width:1.5;" x1="283.75" x2="283.75" y1="1485.7977" y2="1505.7977"/><polygon fill="#A80036" points="279.75,1495.7977,283.75,1505.7977,287.75,1495.7977,283.75,1499.7977" style="stroke:#A80036;stroke-width:1.0;"/><line style="stroke:#A80036;stroke-width:1.5;" x1="283.75" x2="283.75" y1="1529.7977" y2="1549.7977"/><polygon fill="#A80036" points="279.75,1539.7977,283.75,1549.7977,287.75,1539.7977,283.75,1543.7977" style="stroke:#A80036;stroke-width:1.0;"/><line style="stroke:#A80036;stroke-width:1.5;" x1="283.75" x2="283.75" y1="1379.9627" y2="1399.9627"/><polygon fill="#A80036" points="279.75,1389.9627,283.75,1399.9627,287.75,1389.9627,283.75,1393.9627" style="stroke:#A80036;stroke-width:1.0;"/><line style="stroke:#A80036;stroke-width:1.5;" x1="389.75" x2="401.75" y1="1618.1418" y2="1618.1418"/><polygon fill="#A80036" points="397.75,1507.8068,401.75,1497.8068,405.75,1507.8068,401.75,1503.8068" style="stroke:#A80036;stroke-width:1.5;"/><line style="stroke:#A80036;stroke-width:1.5;" x1="401.75" x2="401.75" y1="1367.9627" y2="1618.1418"/><line style="stroke:#A80036;stroke-width:1.5;" x1="401.75" x2="295.75" y1="1367.9627" y2="1367.9627"/><polygon fill="#A80036" points="305.75,1363.9627,295.75,1367.9627,305.75,1371.9627,301.75,1367.9627" style="stroke:#A80036;stroke-width:1.0;"/><line style="stroke:#A80036;stroke-width:1.5;" x1="283.75" x2="283.75" y1="1586.1418" y2="1606.1418"/><polygon fill="#A80036" points="279.75,1596.1418,283.75,1606.1418,287.75,1596.1418,283.75,1600.1418" style="stroke:#A80036;stroke-width:1.0;"/><line style="stroke:#A80036;stroke-width:1.5;" x1="283.75" x2="283.75" y1="1630.1418" y2="1670.1418"/><polygon fill="#A80036" points="279.75,1660.1418,283.75,1670.1418,287.75,1660.1418,283.75,1664.1418" style="stroke:#A80036;stroke-width:1.0;"/><!--MD5=[1eec0a0e3457401e03e73fb8a1851a31]
@startuml Spielverlauf2
    start
        group Registrierung beim Kartenzähler
        :Spielerliste an Kartenzähler senden;
        repeat
            :Kartenzähler registriert sich bei Spieler;
            if (Registrierung erfolgreich) then (nein)
                :Croupier entfernt Spieler;
                :Kartenzähler entfernt Spieler aus Spielerliste;
                if(Spielerliste=leer)then (ja)
                    stop
                endif
            else (ja)
                :Kartenzähler registriert Spieler;
            endif
        repeat while(Alle Spieler in Spielerliste registriert) is (nein) not (ja)
        end group

        group Karten verteilen
        repeat
            repeat
                :Karte an Spieler austeilen;
                :update Statistik;
            repeat while (alle Spieler haben eine Karte) is (nein) not (ja)
            if (Croupier hat keine Karte) then (ja)
                :Karte an Croupier verdeckt austeilen;
                :update Statistik;
            else (nein)
                :Karte an Croupier austeilen;
            endif
        repeat while (alle Spieler haben 2 Karten) is (nein) not (ja)
        end group

    group BlackJack
    if(Spieler oder Croupier hat black jack) then (ja)
        :Gewinne verteilen;
        :update Statistik;
        stop
    else (nein)
    endif
    end group

    group late surrender
    repeat
        if(Surrender) then (ja) 
            :Spieler bust=true;
        else(nein)
        endif
        :Surrender abgefragt = true;
    repeat while (Surrender für alle Spieler abgefragt) is (nein) not (ja)
    end group
stop
@enduml

PlantUML version 1.2021.00(Sun Jan 10 10:25:05 GMT 2021)
(MIT source distribution)
Java Runtime: OpenJDK Runtime Environment
JVM: OpenJDK 64-Bit Server VM
Default Encoding: UTF-8
Language: en
Country: GB
--></g></svg>