<?xml version="1.0" encoding="UTF-8" standalone="no"?><svg xmlns="http://www.w3.org/2000/svg" xmlns:xlink="http://www.w3.org/1999/xlink" contentScriptType="application/ecmascript" contentStyleType="text/css" height="1216px" preserveAspectRatio="none" style="width:444px;height:1216px;" version="1.1" viewBox="0 0 444 1216" width="444px" zoomAndPan="magnify"><defs><filter height="300%" id="f1nk296nv4dslp" width="300%" x="-1" y="-1"><feGaussianBlur result="blurOut" stdDeviation="2.0"/><feColorMatrix in="blurOut" result="blurOut2" type="matrix" values="0 0 0 0 0 0 0 0 0 0 0 0 0 0 0 0 0 0 .4 0"/><feOffset dx="4.0" dy="4.0" in="blurOut2" result="blurOut3"/><feBlend in="SourceGraphic" in2="blurOut3" mode="normal"/></filter></defs><g><rect fill="#FFFFFF" filter="url(#f1nk296nv4dslp)" height="1004.2478" style="stroke:#000000;stroke-width:2.0;" width="420" x="10" y="108.0679"/><rect fill="#FFFFFF" filter="url(#f1nk296nv4dslp)" height="83.118" style="stroke:#000000;stroke-width:2.0;" width="345" x="40" y="134.7739"/><rect fill="#FFFFFF" filter="url(#f1nk296nv4dslp)" height="746.5996" style="stroke:#000000;stroke-width:2.0;" width="400" x="20" y="358.716"/><rect fill="#FFFFFF" filter="url(#f1nk296nv4dslp)" height="712.8936" style="stroke:#000000;stroke-width:2.0;" width="380" x="30" y="385.4221"/><rect fill="#FFFFFF" filter="url(#f1nk296nv4dslp)" height="299.8878" style="stroke:#000000;stroke-width:2.0;" width="360" x="40" y="475.5401"/><rect fill="#FFFFFF" height="61.6879" style="stroke:none;stroke-width:1.0;" width="360" x="40" y="526.9521"/><rect fill="#FFFFFF" height="61.6879" style="stroke:none;stroke-width:1.0;" width="360" x="40" y="588.6401"/><rect fill="#FFFFFF" height="125.0999" style="stroke:none;stroke-width:1.0;" width="360" x="40" y="650.328"/><rect fill="#FFFFFF" height="315.8878" style="stroke:none;stroke-width:1.0;" width="380" x="30" y="782.4279"/><rect fill="#FFFFFF" filter="url(#f1nk296nv4dslp)" height="299.8878" style="stroke:#000000;stroke-width:2.0;" width="230" x="40" y="791.4279"/><rect fill="#FFFFFF" height="61.6879" style="stroke:none;stroke-width:1.0;" width="230" x="40" y="842.8399"/><rect fill="#FFFFFF" height="61.6879" style="stroke:none;stroke-width:1.0;" width="230" x="40" y="904.5278"/><rect fill="#FFFFFF" height="125.0999" style="stroke:none;stroke-width:1.0;" width="230" x="40" y="966.2157"/><line style="stroke:#A80036;stroke-width:1.0;stroke-dasharray:5.0,5.0;" x1="76" x2="76" y1="91.0679" y2="1129.3157"/><line style="stroke:#A80036;stroke-width:1.0;stroke-dasharray:5.0,5.0;" x1="221" x2="221" y1="91.0679" y2="1129.3157"/><line style="stroke:#A80036;stroke-width:1.0;stroke-dasharray:5.0,5.0;" x1="322" x2="322" y1="91.0679" y2="1129.3157"/><text fill="#000000" font-family="sans-serif" font-size="14" lengthAdjust="spacing" textLength="47" x="50" y="86.9659">Spieler</text><ellipse cx="76.5" cy="15" fill="#FEFECE" filter="url(#f1nk296nv4dslp)" rx="8" ry="8" style="stroke:#A80036;stroke-width:2.0;"/><path d="M76.5,23 L76.5,50 M63.5,31 L89.5,31 M76.5,50 L63.5,65 M76.5,50 L89.5,65 " fill="none" filter="url(#f1nk296nv4dslp)" style="stroke:#A80036;stroke-width:2.0;"/><text fill="#000000" font-family="sans-serif" font-size="14" lengthAdjust="spacing" textLength="47" x="50" y="1143.2816">Spieler</text><ellipse cx="76.5" cy="1157.3836" fill="#FEFECE" filter="url(#f1nk296nv4dslp)" rx="8" ry="8" style="stroke:#A80036;stroke-width:2.0;"/><path d="M76.5,1165.3836 L76.5,1192.3836 M63.5,1173.3836 L89.5,1173.3836 M76.5,1192.3836 L63.5,1207.3836 M76.5,1192.3836 L89.5,1207.3836 " fill="none" filter="url(#f1nk296nv4dslp)" style="stroke:#A80036;stroke-width:2.0;"/><rect fill="#FEFECE" filter="url(#f1nk296nv4dslp)" height="33.0679" style="stroke:#A80036;stroke-width:1.5;" width="73" x="183" y="53"/><text fill="#000000" font-family="sans-serif" font-size="14" lengthAdjust="spacing" textLength="59" x="190" y="74.9659">Croupier</text><rect fill="#FEFECE" filter="url(#f1nk296nv4dslp)" height="33.0679" style="stroke:#A80036;stroke-width:1.5;" width="73" x="183" y="1128.3157"/><text fill="#000000" font-family="sans-serif" font-size="14" lengthAdjust="spacing" textLength="59" x="190" y="1150.2816">Croupier</text><rect fill="#FEFECE" filter="url(#f1nk296nv4dslp)" height="33.0679" style="stroke:#A80036;stroke-width:1.5;" width="101" x="270" y="53"/><text fill="#000000" font-family="sans-serif" font-size="14" lengthAdjust="spacing" textLength="87" x="277" y="74.9659">Kartenzähler</text><rect fill="#FEFECE" filter="url(#f1nk296nv4dslp)" height="33.0679" style="stroke:#A80036;stroke-width:1.5;" width="101" x="270" y="1128.3157"/><text fill="#000000" font-family="sans-serif" font-size="14" lengthAdjust="spacing" textLength="87" x="277" y="1150.2816">Kartenzähler</text><path d="M10,108.0679 L73,108.0679 L73,117.0679 L63,127.0679 L10,127.0679 L10,108.0679 " fill="#EEEEEE" style="stroke:#000000;stroke-width:1.0;"/><rect fill="none" height="1004.2478" style="stroke:#000000;stroke-width:2.0;" width="420" x="10" y="108.0679"/><text fill="#000000" font-family="sans-serif" font-size="13" font-weight="bold" lengthAdjust="spacing" textLength="18" x="25" y="122.9649">alt</text><text fill="#000000" font-family="sans-serif" font-size="11" font-weight="bold" lengthAdjust="spacing" textLength="73" x="88" y="121.8268">[Blatt = Paar]</text><path d="M40,134.7739 L103,134.7739 L103,143.7739 L93,153.7739 L40,153.7739 L40,134.7739 " fill="#EEEEEE" style="stroke:#000000;stroke-width:1.0;"/><rect fill="none" height="83.118" style="stroke:#000000;stroke-width:2.0;" width="345" x="40" y="134.7739"/><text fill="#000000" font-family="sans-serif" font-size="13" font-weight="bold" lengthAdjust="spacing" textLength="18" x="55" y="149.6709">alt</text><text fill="#000000" font-family="sans-serif" font-size="11" font-weight="bold" lengthAdjust="spacing" textLength="128" x="118" y="148.5328">[Empfehlung abfragen]</text><polygon fill="#A80036" points="310.5,174.186,320.5,178.186,310.5,182.186,314.5,178.186" style="stroke:#A80036;stroke-width:1.0;"/><line style="stroke:#A80036;stroke-width:1.0;" x1="76.5" x2="316.5" y1="178.186" y2="178.186"/><text fill="#000000" font-family="sans-serif" font-size="13" lengthAdjust="spacing" textLength="130" x="83.5" y="172.377">Empfehlung abfragen</text><polygon fill="#A80036" points="87.5,205.892,77.5,209.892,87.5,213.892,83.5,209.892" style="stroke:#A80036;stroke-width:1.0;"/><line style="stroke:#A80036;stroke-width:1.0;" x1="81.5" x2="321.5" y1="209.892" y2="209.892"/><text fill="#000000" font-family="sans-serif" font-size="13" lengthAdjust="spacing" textLength="105" x="93.5" y="204.083">Empfehlung: Split</text><polygon fill="#A80036" points="209.5,244.598,219.5,248.598,209.5,252.598,213.5,248.598" style="stroke:#A80036;stroke-width:1.0;"/><line style="stroke:#A80036;stroke-width:1.0;" x1="76.5" x2="215.5" y1="248.598" y2="248.598"/><text fill="#000000" font-family="sans-serif" font-size="13" lengthAdjust="spacing" textLength="26" x="83.5" y="242.789">Split</text><polygon fill="#A80036" points="87.5,276.304,77.5,280.304,87.5,284.304,83.5,280.304" style="stroke:#A80036;stroke-width:1.0;"/><line style="stroke:#A80036;stroke-width:1.0;" x1="81.5" x2="220.5" y1="280.304" y2="280.304"/><text fill="#000000" font-family="sans-serif" font-size="13" lengthAdjust="spacing" textLength="65" x="93.5" y="274.495">splits hand</text><polygon fill="#A80036" points="87.5,308.01,77.5,312.01,87.5,316.01,83.5,312.01" style="stroke:#A80036;stroke-width:1.0;"/><line style="stroke:#A80036;stroke-width:1.0;" x1="81.5" x2="220.5" y1="312.01" y2="312.01"/><text fill="#000000" font-family="sans-serif" font-size="13" lengthAdjust="spacing" textLength="78" x="93.5" y="306.201">Karte Hand 1</text><polygon fill="#A80036" points="87.5,339.716,77.5,343.716,87.5,347.716,83.5,343.716" style="stroke:#A80036;stroke-width:1.0;"/><line style="stroke:#A80036;stroke-width:1.0;" x1="81.5" x2="220.5" y1="343.716" y2="343.716"/><text fill="#000000" font-family="sans-serif" font-size="13" lengthAdjust="spacing" textLength="78" x="93.5" y="337.907">Karte Hand 2</text><path d="M20,358.716 L93,358.716 L93,367.716 L83,377.716 L20,377.716 L20,358.716 " fill="#EEEEEE" style="stroke:#000000;stroke-width:1.0;"/><rect fill="none" height="746.5996" style="stroke:#000000;stroke-width:2.0;" width="400" x="20" y="358.716"/><text fill="#000000" font-family="sans-serif" font-size="13" font-weight="bold" lengthAdjust="spacing" textLength="28" x="35" y="373.6131">loop</text><text fill="#000000" font-family="sans-serif" font-size="11" font-weight="bold" lengthAdjust="spacing" textLength="75" x="108" y="372.475">[more hands]</text><path d="M30,385.4221 L93,385.4221 L93,394.4221 L83,404.4221 L30,404.4221 L30,385.4221 " fill="#EEEEEE" style="stroke:#000000;stroke-width:1.0;"/><rect fill="none" height="712.8936" style="stroke:#000000;stroke-width:2.0;" width="380" x="30" y="385.4221"/><text fill="#000000" font-family="sans-serif" font-size="13" font-weight="bold" lengthAdjust="spacing" textLength="18" x="45" y="400.3191">alt</text><text fill="#000000" font-family="sans-serif" font-size="11" font-weight="bold" lengthAdjust="spacing" textLength="112" x="108" y="399.181">[Empfehlung folgen]</text><polygon fill="#A80036" points="310.5,424.8341,320.5,428.8341,310.5,432.8341,314.5,428.8341" style="stroke:#A80036;stroke-width:1.0;"/><line style="stroke:#A80036;stroke-width:1.0;" x1="76.5" x2="316.5" y1="428.8341" y2="428.8341"/><text fill="#000000" font-family="sans-serif" font-size="13" lengthAdjust="spacing" textLength="130" x="83.5" y="423.0251">Empfehlung abfragen</text><polygon fill="#A80036" points="87.5,456.5401,77.5,460.5401,87.5,464.5401,83.5,460.5401" style="stroke:#A80036;stroke-width:1.0;"/><line style="stroke:#A80036;stroke-width:1.0;" x1="81.5" x2="321.5" y1="460.5401" y2="460.5401"/><text fill="#000000" font-family="sans-serif" font-size="13" lengthAdjust="spacing" textLength="129" x="93.5" y="454.7311">Empfehlung mitteilen</text><path d="M40,475.5401 L103,475.5401 L103,484.5401 L93,494.5401 L40,494.5401 L40,475.5401 " fill="#EEEEEE" style="stroke:#000000;stroke-width:1.0;"/><rect fill="none" height="299.8878" style="stroke:#000000;stroke-width:2.0;" width="360" x="40" y="475.5401"/><text fill="#000000" font-family="sans-serif" font-size="13" font-weight="bold" lengthAdjust="spacing" textLength="18" x="55" y="490.4371">alt</text><text fill="#000000" font-family="sans-serif" font-size="11" font-weight="bold" lengthAdjust="spacing" textLength="255" x="118" y="489.299">[Empfehlung = Stand &amp;&amp; Spieler sendet Stand]</text><polygon fill="#A80036" points="209.5,514.9521,219.5,518.9521,209.5,522.9521,213.5,518.9521" style="stroke:#A80036;stroke-width:1.0;"/><line style="stroke:#A80036;stroke-width:1.0;" x1="76.5" x2="215.5" y1="518.9521" y2="518.9521"/><text fill="#000000" font-family="sans-serif" font-size="13" lengthAdjust="spacing" textLength="35" x="83.5" y="513.1431">Stand</text><line style="stroke:#000000;stroke-width:1.0;stroke-dasharray:2.0,2.0;" x1="40" x2="400" y1="527.9521" y2="527.9521"/><text fill="#000000" font-family="sans-serif" font-size="11" font-weight="bold" lengthAdjust="spacing" textLength="241" x="45" y="539.7111">[alt Empfehlung = Hit &amp;&amp; Spieler sendet Hit]</text><line style="stroke:#A80036;stroke-width:1.0;" x1="76.5" x2="118.5" y1="567.6401" y2="567.6401"/><line style="stroke:#A80036;stroke-width:1.0;" x1="118.5" x2="118.5" y1="567.6401" y2="580.6401"/><line style="stroke:#A80036;stroke-width:1.0;" x1="77.5" x2="118.5" y1="580.6401" y2="580.6401"/><polygon fill="#A80036" points="87.5,576.6401,77.5,580.6401,87.5,584.6401,83.5,580.6401" style="stroke:#A80036;stroke-width:1.0;"/><text fill="#000000" font-family="sans-serif" font-size="13" lengthAdjust="spacing" textLength="53" x="83.5" y="561.831">spielt Hit</text><line style="stroke:#000000;stroke-width:1.0;stroke-dasharray:2.0,2.0;" x1="40" x2="400" y1="589.6401" y2="589.6401"/><text fill="#000000" font-family="sans-serif" font-size="11" font-weight="bold" lengthAdjust="spacing" textLength="355" x="45" y="601.399">[alt Empfehlung = Double Down &amp;&amp; Spieler sendet Double Down]</text><line style="stroke:#A80036;stroke-width:1.0;" x1="76.5" x2="118.5" y1="629.328" y2="629.328"/><line style="stroke:#A80036;stroke-width:1.0;" x1="118.5" x2="118.5" y1="629.328" y2="642.328"/><line style="stroke:#A80036;stroke-width:1.0;" x1="77.5" x2="118.5" y1="642.328" y2="642.328"/><polygon fill="#A80036" points="87.5,638.328,77.5,642.328,87.5,646.328,83.5,642.328" style="stroke:#A80036;stroke-width:1.0;"/><text fill="#000000" font-family="sans-serif" font-size="13" lengthAdjust="spacing" textLength="116" x="83.5" y="623.519">spielt Double Down</text><line style="stroke:#000000;stroke-width:1.0;stroke-dasharray:2.0,2.0;" x1="40" x2="400" y1="651.328" y2="651.328"/><text fill="#000000" font-family="sans-serif" font-size="11" font-weight="bold" lengthAdjust="spacing" textLength="239" x="45" y="663.0869">[Empfehlung = Split &amp;&amp; Spieler sendet Split]</text><polygon fill="#A80036" points="209.5,687.0159,219.5,691.0159,209.5,695.0159,213.5,691.0159" style="stroke:#A80036;stroke-width:1.0;"/><line style="stroke:#A80036;stroke-width:1.0;" x1="76.5" x2="215.5" y1="691.0159" y2="691.0159"/><text fill="#000000" font-family="sans-serif" font-size="13" lengthAdjust="spacing" textLength="37" x="83.5" y="685.2069">resplit</text><polygon fill="#A80036" points="209.5,718.7219,219.5,722.7219,209.5,726.7219,213.5,722.7219" style="stroke:#A80036;stroke-width:1.0;"/><line style="stroke:#A80036;stroke-width:1.0;" x1="76.5" x2="215.5" y1="722.7219" y2="722.7219"/><text fill="#000000" font-family="sans-serif" font-size="13" lengthAdjust="spacing" textLength="121" x="83.5" y="716.9129">wiederholter Einsatz</text><line style="stroke:#A80036;stroke-width:1.0;" x1="76.5" x2="118.5" y1="754.4279" y2="754.4279"/><line style="stroke:#A80036;stroke-width:1.0;" x1="118.5" x2="118.5" y1="754.4279" y2="767.4279"/><line style="stroke:#A80036;stroke-width:1.0;" x1="77.5" x2="118.5" y1="767.4279" y2="767.4279"/><polygon fill="#A80036" points="87.5,763.4279,77.5,767.4279,87.5,771.4279,83.5,767.4279" style="stroke:#A80036;stroke-width:1.0;"/><text fill="#000000" font-family="sans-serif" font-size="13" lengthAdjust="spacing" textLength="61" x="83.5" y="748.6189">spielt Split</text><line style="stroke:#000000;stroke-width:1.0;stroke-dasharray:2.0,2.0;" x1="30" x2="410" y1="783.4279" y2="783.4279"/><path d="M40,791.4279 L103,791.4279 L103,800.4279 L93,810.4279 L40,810.4279 L40,791.4279 " fill="#EEEEEE" style="stroke:#000000;stroke-width:1.0;"/><rect fill="none" height="299.8878" style="stroke:#000000;stroke-width:2.0;" width="230" x="40" y="791.4279"/><text fill="#000000" font-family="sans-serif" font-size="13" font-weight="bold" lengthAdjust="spacing" textLength="18" x="55" y="806.3249">alt</text><text fill="#000000" font-family="sans-serif" font-size="11" font-weight="bold" lengthAdjust="spacing" textLength="123" x="118" y="805.1868">[Spieler sendet Stand]</text><polygon fill="#A80036" points="209.5,830.8399,219.5,834.8399,209.5,838.8399,213.5,834.8399" style="stroke:#A80036;stroke-width:1.0;"/><line style="stroke:#A80036;stroke-width:1.0;" x1="76.5" x2="215.5" y1="834.8399" y2="834.8399"/><text fill="#000000" font-family="sans-serif" font-size="13" lengthAdjust="spacing" textLength="35" x="83.5" y="829.0309">Stand</text><line style="stroke:#000000;stroke-width:1.0;stroke-dasharray:2.0,2.0;" x1="40" x2="270" y1="843.8399" y2="843.8399"/><text fill="#000000" font-family="sans-serif" font-size="11" font-weight="bold" lengthAdjust="spacing" textLength="107" x="45" y="855.5988">[Spieler sendet Hit]</text><line style="stroke:#A80036;stroke-width:1.0;" x1="76.5" x2="118.5" y1="883.5278" y2="883.5278"/><line style="stroke:#A80036;stroke-width:1.0;" x1="118.5" x2="118.5" y1="883.5278" y2="896.5278"/><line style="stroke:#A80036;stroke-width:1.0;" x1="77.5" x2="118.5" y1="896.5278" y2="896.5278"/><polygon fill="#A80036" points="87.5,892.5278,77.5,896.5278,87.5,900.5278,83.5,896.5278" style="stroke:#A80036;stroke-width:1.0;"/><text fill="#000000" font-family="sans-serif" font-size="13" lengthAdjust="spacing" textLength="53" x="83.5" y="877.7188">spielt Hit</text><line style="stroke:#000000;stroke-width:1.0;stroke-dasharray:2.0,2.0;" x1="40" x2="270" y1="905.5278" y2="905.5278"/><text fill="#000000" font-family="sans-serif" font-size="11" font-weight="bold" lengthAdjust="spacing" textLength="164" x="45" y="917.2867">[Spieler sendet Double Down]</text><line style="stroke:#A80036;stroke-width:1.0;" x1="76.5" x2="118.5" y1="945.2157" y2="945.2157"/><line style="stroke:#A80036;stroke-width:1.0;" x1="118.5" x2="118.5" y1="945.2157" y2="958.2157"/><line style="stroke:#A80036;stroke-width:1.0;" x1="77.5" x2="118.5" y1="958.2157" y2="958.2157"/><polygon fill="#A80036" points="87.5,954.2157,77.5,958.2157,87.5,962.2157,83.5,958.2157" style="stroke:#A80036;stroke-width:1.0;"/><text fill="#000000" font-family="sans-serif" font-size="13" lengthAdjust="spacing" textLength="116" x="83.5" y="939.4067">spielt Double Down</text><line style="stroke:#000000;stroke-width:1.0;stroke-dasharray:2.0,2.0;" x1="40" x2="270" y1="967.2157" y2="967.2157"/><text fill="#000000" font-family="sans-serif" font-size="11" font-weight="bold" lengthAdjust="spacing" textLength="202" x="45" y="978.9746">[Spieler sendet split &amp;&amp; Blatt = Paar]</text><polygon fill="#A80036" points="209.5,1002.9036,219.5,1006.9036,209.5,1010.9036,213.5,1006.9036" style="stroke:#A80036;stroke-width:1.0;"/><line style="stroke:#A80036;stroke-width:1.0;" x1="76.5" x2="215.5" y1="1006.9036" y2="1006.9036"/><text fill="#000000" font-family="sans-serif" font-size="13" lengthAdjust="spacing" textLength="37" x="83.5" y="1001.0946">resplit</text><polygon fill="#A80036" points="209.5,1034.6097,219.5,1038.6097,209.5,1042.6097,213.5,1038.6097" style="stroke:#A80036;stroke-width:1.0;"/><line style="stroke:#A80036;stroke-width:1.0;" x1="76.5" x2="215.5" y1="1038.6097" y2="1038.6097"/><text fill="#000000" font-family="sans-serif" font-size="13" lengthAdjust="spacing" textLength="121" x="83.5" y="1032.8007">wiederholter Einsatz</text><line style="stroke:#A80036;stroke-width:1.0;" x1="76.5" x2="118.5" y1="1070.3157" y2="1070.3157"/><line style="stroke:#A80036;stroke-width:1.0;" x1="118.5" x2="118.5" y1="1070.3157" y2="1083.3157"/><line style="stroke:#A80036;stroke-width:1.0;" x1="77.5" x2="118.5" y1="1083.3157" y2="1083.3157"/><polygon fill="#A80036" points="87.5,1079.3157,77.5,1083.3157,87.5,1087.3157,83.5,1083.3157" style="stroke:#A80036;stroke-width:1.0;"/><text fill="#000000" font-family="sans-serif" font-size="13" lengthAdjust="spacing" textLength="61" x="83.5" y="1064.5067">spielt Split</text><!--MD5=[55f58be8817bf0618b4d7e1a2fbee03d]
@startuml Split
actor Spieler
participant Croupier
participant Kartenzähler

alt Blatt = Paar
    alt Empfehlung abfragen
        Spieler -> Kartenzähler : Empfehlung abfragen
        Kartenzähler -> Spieler : Empfehlung: Split
    end

    Spieler -> Croupier : Split
    Croupier -> Spieler : splits hand
    Croupier -> Spieler : Karte Hand 1
    Croupier -> Spieler : Karte Hand 2
    loop more hands
        alt Empfehlung folgen
            Spieler -> Kartenzähler: Empfehlung abfragen
            Kartenzähler -> Spieler: Empfehlung mitteilen

            alt Empfehlung = Stand && Spieler sendet Stand
                Spieler -> Croupier: Stand
            else alt Empfehlung = Hit && Spieler sendet Hit
                Spieler -> Spieler: spielt Hit 
            else alt Empfehlung = Double Down && Spieler sendet Double Down
                Spieler -> Spieler: spielt Double Down
            else Empfehlung = Split && Spieler sendet Split
                Spieler -> Croupier: resplit
                Spieler -> Croupier: wiederholter Einsatz 
                Spieler -> Spieler: spielt Split
            end
        else
            alt Spieler sendet Stand
                Spieler -> Croupier: Stand
            else Spieler sendet Hit
                Spieler -> Spieler: spielt Hit 
            else Spieler sendet Double Down
                Spieler -> Spieler: spielt Double Down
            else Spieler sendet split && Blatt = Paar
                Spieler -> Croupier: resplit
                Spieler -> Croupier: wiederholter Einsatz 
                Spieler -> Spieler: spielt Split
            end
        end
    end
end
@enduml

PlantUML version 1.2021.00(Sun Jan 10 10:25:05 GMT 2021)
(MIT source distribution)
Java Runtime: OpenJDK Runtime Environment
JVM: OpenJDK 64-Bit Server VM
Default Encoding: UTF-8
Language: en
Country: GB
--></g></svg>