<?xml version="1.0" encoding="UTF-8" standalone="no"?><svg xmlns="http://www.w3.org/2000/svg" xmlns:xlink="http://www.w3.org/1999/xlink" contentScriptType="application/ecmascript" contentStyleType="text/css" height="687px" preserveAspectRatio="none" style="width:697px;height:687px;" version="1.1" viewBox="0 0 697 687" width="697px" zoomAndPan="magnify"><defs><filter height="300%" id="f1au1yo4t3mkpi" width="300%" x="-1" y="-1"><feGaussianBlur result="blurOut" stdDeviation="2.0"/><feColorMatrix in="blurOut" result="blurOut2" type="matrix" values="0 0 0 0 0 0 0 0 0 0 0 0 0 0 0 0 0 0 .4 0"/><feOffset dx="4.0" dy="4.0" in="blurOut2" result="blurOut3"/><feBlend in="SourceGraphic" in2="blurOut3" mode="normal"/></filter></defs><g><ellipse cx="341" cy="20" fill="#000000" filter="url(#f1au1yo4t3mkpi)" rx="10" ry="10" style="stroke:none;stroke-width:1.0;"/><rect fill="#FEFECE" filter="url(#f1au1yo4t3mkpi)" height="36.3441" rx="12.5" ry="12.5" style="stroke:#A80036;stroke-width:1.5;" width="124" x="279" y="94"/><text fill="#000000" font-family="sans-serif" font-size="12" lengthAdjust="spacing" textLength="104" x="289" y="116.8281">Nachricht erhalten</text><polygon fill="#FEFECE" filter="url(#f1au1yo4t3mkpi)" points="79.5,207.603,115.5,207.603,127.5,219.603,115.5,231.603,79.5,231.603,67.5,219.603,79.5,207.603" style="stroke:#A80036;stroke-width:1.5;"/><text fill="#000000" font-family="sans-serif" font-size="11" lengthAdjust="spacing" textLength="9" x="101.5" y="243.3619">ja</text><text fill="#000000" font-family="sans-serif" font-size="11" lengthAdjust="spacing" textLength="36" x="79.5" y="223.871">Spieler</text><polygon fill="#FEFECE" filter="url(#f1au1yo4t3mkpi)" points="68.5,264.8619,126.5,264.8619,138.5,276.8619,126.5,288.8619,68.5,288.8619,56.5,276.8619,68.5,264.8619" style="stroke:#A80036;stroke-width:1.5;"/><text fill="#000000" font-family="sans-serif" font-size="11" lengthAdjust="spacing" textLength="58" x="68.5" y="281.1299">freie Plätze</text><text fill="#000000" font-family="sans-serif" font-size="11" lengthAdjust="spacing" textLength="23" x="33.5" y="273.639">nein</text><text fill="#000000" font-family="sans-serif" font-size="11" lengthAdjust="spacing" textLength="9" x="138.5" y="273.639">ja</text><rect fill="#FEFECE" filter="url(#f1au1yo4t3mkpi)" height="36.3441" rx="12.5" ry="12.5" style="stroke:#A80036;stroke-width:1.5;" width="71" x="11" y="298.8619"/><text fill="#000000" font-family="sans-serif" font-size="12" lengthAdjust="spacing" textLength="51" x="21" y="321.69">Tisch voll</text><rect fill="#FEFECE" filter="url(#f1au1yo4t3mkpi)" height="36.3441" rx="12.5" ry="12.5" style="stroke:#A80036;stroke-width:1.5;" width="76" x="110.5" y="298.8619"/><text fill="#000000" font-family="sans-serif" font-size="12" lengthAdjust="spacing" textLength="56" x="120.5" y="321.69">registriert</text><rect fill="#FEFECE" filter="url(#f1au1yo4t3mkpi)" height="36.3441" rx="12.5" ry="12.5" style="stroke:#A80036;stroke-width:1.5;" width="93" x="102" y="369.197"/><text fill="#000000" font-family="sans-serif" font-size="12" lengthAdjust="spacing" textLength="73" x="112" y="392.0251">Spielerslots--</text><polygon fill="#FEFECE" filter="url(#f1au1yo4t3mkpi)" points="97.5,411.5411,109.5,423.5411,97.5,435.5411,85.5,423.5411,97.5,411.5411" style="stroke:#A80036;stroke-width:1.5;"/><polygon fill="#FEFECE" filter="url(#f1au1yo4t3mkpi)" points="380.5,207.603,447.5,207.603,459.5,219.603,447.5,231.603,380.5,231.603,368.5,219.603,380.5,207.603" style="stroke:#A80036;stroke-width:1.5;"/><text fill="#000000" font-family="sans-serif" font-size="11" lengthAdjust="spacing" textLength="9" x="418" y="243.3619">ja</text><text fill="#000000" font-family="sans-serif" font-size="11" lengthAdjust="spacing" textLength="67" x="380.5" y="223.871">Kartenzähler</text><polygon fill="#FEFECE" filter="url(#f1au1yo4t3mkpi)" points="385,264.8619,443,264.8619,455,276.8619,443,288.8619,385,288.8619,373,276.8619,385,264.8619" style="stroke:#A80036;stroke-width:1.5;"/><text fill="#000000" font-family="sans-serif" font-size="11" lengthAdjust="spacing" textLength="58" x="385" y="281.1299">vorhanden</text><text fill="#000000" font-family="sans-serif" font-size="11" lengthAdjust="spacing" textLength="9" x="364" y="273.639">ja</text><text fill="#000000" font-family="sans-serif" font-size="11" lengthAdjust="spacing" textLength="23" x="455" y="273.639">nein</text><rect fill="#FEFECE" filter="url(#f1au1yo4t3mkpi)" height="36.3441" rx="12.5" ry="12.5" style="stroke:#A80036;stroke-width:1.5;" width="155" x="235" y="298.8619"/><text fill="#000000" font-family="sans-serif" font-size="12" lengthAdjust="spacing" textLength="135" x="245" y="321.69">Kartenzähler vorhanden</text><rect fill="#FEFECE" filter="url(#f1au1yo4t3mkpi)" height="36.3441" rx="12.5" ry="12.5" style="stroke:#A80036;stroke-width:1.5;" width="211" x="410" y="298.8619"/><text fill="#000000" font-family="sans-serif" font-size="12" lengthAdjust="spacing" textLength="191" x="420" y="321.69">Kartenzähler registriert-&gt;Croupier</text><rect fill="#FEFECE" filter="url(#f1au1yo4t3mkpi)" height="36.3441" rx="12.5" ry="12.5" style="stroke:#A80036;stroke-width:1.5;" width="211" x="410" y="369.197"/><text fill="#000000" font-family="sans-serif" font-size="12" lengthAdjust="spacing" textLength="191" x="420" y="392.0251">Croupier registriert-&gt;Kartenzähler</text><rect fill="#FEFECE" filter="url(#f1au1yo4t3mkpi)" height="36.3441" rx="12.5" ry="12.5" style="stroke:#A80036;stroke-width:1.5;" width="122" x="454.5" y="440.5411"/><text fill="#000000" font-family="sans-serif" font-size="12" lengthAdjust="spacing" textLength="102" x="464.5" y="463.3692">Kartenzähler=true</text><polygon fill="#FEFECE" filter="url(#f1au1yo4t3mkpi)" points="414,482.8852,426,494.8852,414,506.8852,402,494.8852,414,482.8852" style="stroke:#A80036;stroke-width:1.5;"/><polygon fill="#FEFECE" filter="url(#f1au1yo4t3mkpi)" points="294.5,150.3441,387.5,150.3441,399.5,162.3441,387.5,174.3441,294.5,174.3441,282.5,162.3441,294.5,150.3441" style="stroke:#A80036;stroke-width:1.5;"/><text fill="#000000" font-family="sans-serif" font-size="11" lengthAdjust="spacing" textLength="72" x="345" y="186.103">Registrierung</text><text fill="#000000" font-family="sans-serif" font-size="11" lengthAdjust="spacing" textLength="93" x="294.5" y="166.6121">Nachrichteninhalt</text><text fill="#000000" font-family="sans-serif" font-size="11" lengthAdjust="spacing" textLength="49" x="399.5" y="159.1211">Spielstart</text><polygon fill="#FEFECE" filter="url(#f1au1yo4t3mkpi)" points="341,546.8852,353,558.8852,341,570.8852,329,558.8852,341,546.8852" style="stroke:#A80036;stroke-width:1.5;"/><polygon fill="#FEFECE" filter="url(#f1au1yo4t3mkpi)" points="341,50,353,62,341,74,329,62,341,50" style="stroke:#A80036;stroke-width:1.5;"/><polygon fill="#FEFECE" filter="url(#f1au1yo4t3mkpi)" points="206,590.8852,476,590.8852,488,602.8852,476,614.8852,206,614.8852,194,602.8852,206,590.8852" style="stroke:#A80036;stroke-width:1.5;"/><text fill="#000000" font-family="sans-serif" font-size="11" lengthAdjust="spacing" textLength="9" x="345" y="626.6441">ja</text><text fill="#000000" font-family="sans-serif" font-size="11" lengthAdjust="spacing" textLength="267" x="206" y="607.1532">Spielstart &amp;&amp; Spieler!=empty &amp;&amp; Kartenzähler!=null</text><text fill="#000000" font-family="sans-serif" font-size="11" lengthAdjust="spacing" textLength="23" x="488" y="599.6622">nein</text><ellipse cx="341" cy="659.1441" fill="#FFFFFF" filter="url(#f1au1yo4t3mkpi)" rx="11" ry="11" style="stroke:#000000;stroke-width:1.0;"/><ellipse cx="341" cy="659.1441" fill="#000000" rx="6" ry="6" style="stroke:#7F7F7F;stroke-width:1.0;"/><line style="stroke:#A80036;stroke-width:1.5;" x1="148.5" x2="148.5" y1="335.2061" y2="369.197"/><polygon fill="#A80036" points="144.5,359.197,148.5,369.197,152.5,359.197,148.5,363.197" style="stroke:#A80036;stroke-width:1.0;"/><line style="stroke:#A80036;stroke-width:1.5;" x1="56.5" x2="46.5" y1="276.8619" y2="276.8619"/><line style="stroke:#A80036;stroke-width:1.5;" x1="46.5" x2="46.5" y1="276.8619" y2="298.8619"/><polygon fill="#A80036" points="42.5,288.8619,46.5,298.8619,50.5,288.8619,46.5,292.8619" style="stroke:#A80036;stroke-width:1.0;"/><line style="stroke:#A80036;stroke-width:1.5;" x1="138.5" x2="148.5" y1="276.8619" y2="276.8619"/><line style="stroke:#A80036;stroke-width:1.5;" x1="148.5" x2="148.5" y1="276.8619" y2="298.8619"/><polygon fill="#A80036" points="144.5,288.8619,148.5,298.8619,152.5,288.8619,148.5,292.8619" style="stroke:#A80036;stroke-width:1.0;"/><line style="stroke:#A80036;stroke-width:1.5;" x1="46.5" x2="46.5" y1="335.2061" y2="423.5411"/><line style="stroke:#A80036;stroke-width:1.5;" x1="46.5" x2="85.5" y1="423.5411" y2="423.5411"/><polygon fill="#A80036" points="75.5,419.5411,85.5,423.5411,75.5,427.5411,79.5,423.5411" style="stroke:#A80036;stroke-width:1.0;"/><line style="stroke:#A80036;stroke-width:1.5;" x1="148.5" x2="148.5" y1="405.5411" y2="423.5411"/><line style="stroke:#A80036;stroke-width:1.5;" x1="148.5" x2="109.5" y1="423.5411" y2="423.5411"/><polygon fill="#A80036" points="119.5,419.5411,109.5,423.5411,119.5,427.5411,115.5,423.5411" style="stroke:#A80036;stroke-width:1.0;"/><line style="stroke:#A80036;stroke-width:1.5;" x1="515.5" x2="515.5" y1="335.2061" y2="369.197"/><polygon fill="#A80036" points="511.5,359.197,515.5,369.197,519.5,359.197,515.5,363.197" style="stroke:#A80036;stroke-width:1.0;"/><line style="stroke:#A80036;stroke-width:1.5;" x1="515.5" x2="515.5" y1="405.5411" y2="440.5411"/><polygon fill="#A80036" points="511.5,430.5411,515.5,440.5411,519.5,430.5411,515.5,434.5411" style="stroke:#A80036;stroke-width:1.0;"/><line style="stroke:#A80036;stroke-width:1.5;" x1="373" x2="312.5" y1="276.8619" y2="276.8619"/><line style="stroke:#A80036;stroke-width:1.5;" x1="312.5" x2="312.5" y1="276.8619" y2="298.8619"/><polygon fill="#A80036" points="308.5,288.8619,312.5,298.8619,316.5,288.8619,312.5,292.8619" style="stroke:#A80036;stroke-width:1.0;"/><line style="stroke:#A80036;stroke-width:1.5;" x1="455" x2="515.5" y1="276.8619" y2="276.8619"/><line style="stroke:#A80036;stroke-width:1.5;" x1="515.5" x2="515.5" y1="276.8619" y2="298.8619"/><polygon fill="#A80036" points="511.5,288.8619,515.5,298.8619,519.5,288.8619,515.5,292.8619" style="stroke:#A80036;stroke-width:1.0;"/><line style="stroke:#A80036;stroke-width:1.5;" x1="312.5" x2="312.5" y1="335.2061" y2="494.8852"/><line style="stroke:#A80036;stroke-width:1.5;" x1="312.5" x2="402" y1="494.8852" y2="494.8852"/><polygon fill="#A80036" points="392,490.8852,402,494.8852,392,498.8852,396,494.8852" style="stroke:#A80036;stroke-width:1.0;"/><line style="stroke:#A80036;stroke-width:1.5;" x1="515.5" x2="515.5" y1="476.8852" y2="494.8852"/><line style="stroke:#A80036;stroke-width:1.5;" x1="515.5" x2="426" y1="494.8852" y2="494.8852"/><polygon fill="#A80036" points="436,490.8852,426,494.8852,436,498.8852,432,494.8852" style="stroke:#A80036;stroke-width:1.0;"/><line style="stroke:#A80036;stroke-width:1.5;" x1="97.5" x2="97.5" y1="231.603" y2="264.8619"/><polygon fill="#A80036" points="93.5,254.8619,97.5,264.8619,101.5,254.8619,97.5,258.8619" style="stroke:#A80036;stroke-width:1.0;"/><line style="stroke:#A80036;stroke-width:1.5;" x1="97.5" x2="97.5" y1="435.5411" y2="526.8852"/><polygon fill="#A80036" points="93.5,516.8852,97.5,526.8852,101.5,516.8852,97.5,520.8852" style="stroke:#A80036;stroke-width:1.0;"/><line style="stroke:#A80036;stroke-width:1.5;" x1="414" x2="414" y1="231.603" y2="264.8619"/><polygon fill="#A80036" points="410,254.8619,414,264.8619,418,254.8619,414,258.8619" style="stroke:#A80036;stroke-width:1.0;"/><line style="stroke:#A80036;stroke-width:1.5;" x1="414" x2="414" y1="506.8852" y2="526.8852"/><polygon fill="#A80036" points="410,516.8852,414,526.8852,418,516.8852,414,520.8852" style="stroke:#A80036;stroke-width:1.0;"/><line style="stroke:#A80036;stroke-width:1.5;" x1="127.5" x2="368.5" y1="219.603" y2="219.603"/><polygon fill="#A80036" points="358.5,215.603,368.5,219.603,358.5,223.603,362.5,219.603" style="stroke:#A80036;stroke-width:1.0;"/><line style="stroke:#A80036;stroke-width:1.5;" x1="341" x2="341" y1="174.3441" y2="192.603"/><line style="stroke:#A80036;stroke-width:1.5;" x1="341" x2="97.5" y1="192.603" y2="192.603"/><line style="stroke:#A80036;stroke-width:1.5;" x1="97.5" x2="97.5" y1="192.603" y2="207.603"/><polygon fill="#A80036" points="93.5,197.603,97.5,207.603,101.5,197.603,97.5,201.603" style="stroke:#A80036;stroke-width:1.0;"/><line style="stroke:#A80036;stroke-width:1.5;" x1="459.5" x2="635" y1="219.603" y2="219.603"/><line style="stroke:#A80036;stroke-width:1.5;" x1="635" x2="635" y1="219.603" y2="526.8852"/><polygon fill="#A80036" points="631,516.8852,635,526.8852,639,516.8852,635,520.8852" style="stroke:#A80036;stroke-width:1.0;"/><line style="stroke:#A80036;stroke-width:1.5;" x1="97.5" x2="635" y1="526.8852" y2="526.8852"/><line style="stroke:#A80036;stroke-width:1.5;" x1="399.5" x2="653" y1="162.3441" y2="162.3441"/><polygon fill="#A80036" points="649,370.8781,653,380.8781,657,370.8781,653,374.8781" style="stroke:#A80036;stroke-width:1.5;"/><line style="stroke:#A80036;stroke-width:1.5;" x1="653" x2="653" y1="162.3441" y2="558.8852"/><line style="stroke:#A80036;stroke-width:1.5;" x1="653" x2="353" y1="558.8852" y2="558.8852"/><polygon fill="#A80036" points="363,554.8852,353,558.8852,363,562.8852,359,558.8852" style="stroke:#A80036;stroke-width:1.0;"/><line style="stroke:#A80036;stroke-width:1.5;" x1="341" x2="341" y1="526.8852" y2="546.8852"/><polygon fill="#A80036" points="337,536.8852,341,546.8852,345,536.8852,341,540.8852" style="stroke:#A80036;stroke-width:1.0;"/><line style="stroke:#A80036;stroke-width:1.5;" x1="341" x2="341" y1="130.3441" y2="150.3441"/><polygon fill="#A80036" points="337,140.3441,341,150.3441,345,140.3441,341,144.3441" style="stroke:#A80036;stroke-width:1.0;"/><line style="stroke:#A80036;stroke-width:1.5;" x1="341" x2="341" y1="74" y2="94"/><polygon fill="#A80036" points="337,84,341,94,345,84,341,88" style="stroke:#A80036;stroke-width:1.0;"/><line style="stroke:#A80036;stroke-width:1.5;" x1="488" x2="671" y1="602.8852" y2="602.8852"/><polygon fill="#A80036" points="667,355.2061,671,345.2061,675,355.2061,671,351.2061" style="stroke:#A80036;stroke-width:1.5;"/><line style="stroke:#A80036;stroke-width:1.5;" x1="671" x2="671" y1="62" y2="602.8852"/><line style="stroke:#A80036;stroke-width:1.5;" x1="671" x2="353" y1="62" y2="62"/><polygon fill="#A80036" points="363,58,353,62,363,66,359,62" style="stroke:#A80036;stroke-width:1.0;"/><line style="stroke:#A80036;stroke-width:1.5;" x1="341" x2="341" y1="570.8852" y2="590.8852"/><polygon fill="#A80036" points="337,580.8852,341,590.8852,345,580.8852,341,584.8852" style="stroke:#A80036;stroke-width:1.0;"/><line style="stroke:#A80036;stroke-width:1.5;" x1="341" x2="341" y1="30" y2="50"/><polygon fill="#A80036" points="337,40,341,50,345,40,341,44" style="stroke:#A80036;stroke-width:1.0;"/><line style="stroke:#A80036;stroke-width:1.5;" x1="341" x2="341" y1="614.8852" y2="648.1441"/><polygon fill="#A80036" points="337,638.1441,341,648.1441,345,638.1441,341,642.1441" style="stroke:#A80036;stroke-width:1.0;"/><!--MD5=[8829d2d0ff53e29f053658c609f7aaf4]
@startuml Spielverlauf1
start
    '/:starte Croupier;
    repeat
        :Nachricht erhalten;
        if(Nachrichteninhalt) then (Registrierung)
            '/group registration
            if(Spieler) then (ja)
                if(freie Plätze) then (nein)
                    :Tisch voll;
                else (ja)
                    :registriert;
                    :Spielerslots- -;
                endif
            elseif(Kartenzähler) then (ja)
                if(vorhanden) then (ja)
                    :Kartenzähler vorhanden;
                else(nein)
                    :Kartenzähler registriert->Croupier;
                    :Croupier registriert->Kartenzähler;
                    :Kartenzähler=true;
                endif
            endif
            '/end group
        else (Spielstart)
        endif
    repeat while (Spielstart && Spieler!=empty && Kartenzähler!=null ) is (nein) not (ja)
stop
@enduml

@startuml Spielverlauf1
start
    repeat
        :Nachricht erhalten;
        if(Nachrichteninhalt) then (Registrierung)
            if(Spieler) then (ja)
                if(freie Plätze) then (nein)
                    :Tisch voll;
                else (ja)
                    :registriert;
                    :Spielerslots- -;
                endif
            elseif(Kartenzähler) then (ja)
                if(vorhanden) then (ja)
                    :Kartenzähler vorhanden;
                else(nein)
                    :Kartenzähler registriert->Croupier;
                    :Croupier registriert->Kartenzähler;
                    :Kartenzähler=true;
                endif
            endif
        else (Spielstart)
        endif
    repeat while (Spielstart && Spieler!=empty && Kartenzähler!=null ) is (nein) not (ja)
stop
@enduml

PlantUML version 1.2021.00(Sun Jan 10 10:25:05 GMT 2021)
(MIT source distribution)
Java Runtime: OpenJDK Runtime Environment
JVM: OpenJDK 64-Bit Server VM
Default Encoding: UTF-8
Language: en
Country: GB
--></g></svg>