<?xml version="1.0" encoding="UTF-8" standalone="no"?><svg xmlns="http://www.w3.org/2000/svg" xmlns:xlink="http://www.w3.org/1999/xlink" contentScriptType="application/ecmascript" contentStyleType="text/css" height="466px" preserveAspectRatio="none" style="width:440px;height:466px;" version="1.1" viewBox="0 0 440 466" width="440px" zoomAndPan="magnify"><defs><filter height="300%" id="f1u6ppmesmwqty" width="300%" x="-1" y="-1"><feGaussianBlur result="blurOut" stdDeviation="2.0"/><feColorMatrix in="blurOut" result="blurOut2" type="matrix" values="0 0 0 0 0 0 0 0 0 0 0 0 0 0 0 0 0 0 .4 0"/><feOffset dx="4.0" dy="4.0" in="blurOut2" result="blurOut3"/><feBlend in="SourceGraphic" in2="blurOut3" mode="normal"/></filter></defs><g><rect fill="#FFFFFF" filter="url(#f1u6ppmesmwqty)" height="83.118" style="stroke:#000000;stroke-width:2.0;" width="416" x="10" y="108.0679"/><line style="stroke:#A80036;stroke-width:1.0;stroke-dasharray:5.0,5.0;" x1="46" x2="46" y1="91.0679" y2="379.716"/><line style="stroke:#A80036;stroke-width:1.0;stroke-dasharray:5.0,5.0;" x1="191" x2="191" y1="91.0679" y2="379.716"/><line style="stroke:#A80036;stroke-width:1.0;stroke-dasharray:5.0,5.0;" x1="363" x2="363" y1="91.0679" y2="379.716"/><text fill="#000000" font-family="sans-serif" font-size="14" lengthAdjust="spacing" textLength="47" x="20" y="86.9659">Spieler</text><ellipse cx="46.5" cy="15" fill="#FEFECE" filter="url(#f1u6ppmesmwqty)" rx="8" ry="8" style="stroke:#A80036;stroke-width:2.0;"/><path d="M46.5,23 L46.5,50 M33.5,31 L59.5,31 M46.5,50 L33.5,65 M46.5,50 L59.5,65 " fill="none" filter="url(#f1u6ppmesmwqty)" style="stroke:#A80036;stroke-width:2.0;"/><text fill="#000000" font-family="sans-serif" font-size="14" lengthAdjust="spacing" textLength="47" x="20" y="393.682">Spieler</text><ellipse cx="46.5" cy="407.784" fill="#FEFECE" filter="url(#f1u6ppmesmwqty)" rx="8" ry="8" style="stroke:#A80036;stroke-width:2.0;"/><path d="M46.5,415.784 L46.5,442.784 M33.5,423.784 L59.5,423.784 M46.5,442.784 L33.5,457.784 M46.5,442.784 L59.5,457.784 " fill="none" filter="url(#f1u6ppmesmwqty)" style="stroke:#A80036;stroke-width:2.0;"/><rect fill="#FEFECE" filter="url(#f1u6ppmesmwqty)" height="33.0679" style="stroke:#A80036;stroke-width:1.5;" width="73" x="153" y="53"/><text fill="#000000" font-family="sans-serif" font-size="14" lengthAdjust="spacing" textLength="59" x="160" y="74.9659">Croupier</text><rect fill="#FEFECE" filter="url(#f1u6ppmesmwqty)" height="33.0679" style="stroke:#A80036;stroke-width:1.5;" width="73" x="153" y="378.716"/><text fill="#000000" font-family="sans-serif" font-size="14" lengthAdjust="spacing" textLength="59" x="160" y="400.682">Croupier</text><rect fill="#FEFECE" filter="url(#f1u6ppmesmwqty)" height="33.0679" style="stroke:#A80036;stroke-width:1.5;" width="101" x="311" y="53"/><text fill="#000000" font-family="sans-serif" font-size="14" lengthAdjust="spacing" textLength="87" x="318" y="74.9659">Kartenzähler</text><rect fill="#FEFECE" filter="url(#f1u6ppmesmwqty)" height="33.0679" style="stroke:#A80036;stroke-width:1.5;" width="101" x="311" y="378.716"/><text fill="#000000" font-family="sans-serif" font-size="14" lengthAdjust="spacing" textLength="87" x="318" y="400.682">Kartenzähler</text><path d="M10,108.0679 L77,108.0679 L77,117.0679 L67,127.0679 L10,127.0679 L10,108.0679 " fill="#EEEEEE" style="stroke:#000000;stroke-width:1.0;"/><rect fill="none" height="83.118" style="stroke:#000000;stroke-width:2.0;" width="416" x="10" y="108.0679"/><text fill="#000000" font-family="sans-serif" font-size="13" font-weight="bold" lengthAdjust="spacing" textLength="22" x="25" y="122.9649">opt</text><text fill="#000000" font-family="sans-serif" font-size="11" font-weight="bold" lengthAdjust="spacing" textLength="128" x="92" y="121.8268">[Empfehlung abfragen]</text><polygon fill="#A80036" points="351.5,147.4799,361.5,151.4799,351.5,155.4799,355.5,151.4799" style="stroke:#A80036;stroke-width:1.0;"/><line style="stroke:#A80036;stroke-width:1.0;" x1="46.5" x2="357.5" y1="151.4799" y2="151.4799"/><text fill="#000000" font-family="sans-serif" font-size="13" lengthAdjust="spacing" textLength="130" x="53.5" y="145.6709">Empfehlung anfragen</text><polygon fill="#A80036" points="57.5,179.186,47.5,183.186,57.5,187.186,53.5,183.186" style="stroke:#A80036;stroke-width:1.0;"/><line style="stroke:#A80036;stroke-width:1.0;" x1="51.5" x2="362.5" y1="183.186" y2="183.186"/><text fill="#000000" font-family="sans-serif" font-size="13" lengthAdjust="spacing" textLength="160" x="63.5" y="177.377">Empfehlung: Double Down</text><polygon fill="#A80036" points="179.5,217.892,189.5,221.892,179.5,225.892,183.5,221.892" style="stroke:#A80036;stroke-width:1.0;"/><line style="stroke:#A80036;stroke-width:1.0;" x1="46.5" x2="185.5" y1="221.892" y2="221.892"/><text fill="#000000" font-family="sans-serif" font-size="13" lengthAdjust="spacing" textLength="81" x="53.5" y="216.083">Double Down</text><line style="stroke:#A80036;stroke-width:1.0;" x1="191.5" x2="233.5" y1="253.598" y2="253.598"/><line style="stroke:#A80036;stroke-width:1.0;" x1="233.5" x2="233.5" y1="253.598" y2="266.598"/><line style="stroke:#A80036;stroke-width:1.0;" x1="192.5" x2="233.5" y1="266.598" y2="266.598"/><polygon fill="#A80036" points="202.5,262.598,192.5,266.598,202.5,270.598,198.5,266.598" style="stroke:#A80036;stroke-width:1.0;"/><text fill="#000000" font-family="sans-serif" font-size="13" lengthAdjust="spacing" textLength="158" x="198.5" y="247.789">Spieler-Einsatz verdoppeln</text><polygon fill="#A80036" points="57.5,294.304,47.5,298.304,57.5,302.304,53.5,298.304" style="stroke:#A80036;stroke-width:1.0;"/><line style="stroke:#A80036;stroke-width:1.0;" x1="51.5" x2="190.5" y1="298.304" y2="298.304"/><text fill="#000000" font-family="sans-serif" font-size="13" lengthAdjust="spacing" textLength="32" x="63.5" y="292.495">Karte</text><polygon fill="#A80036" points="351.5,326.01,361.5,330.01,351.5,334.01,355.5,330.01" style="stroke:#A80036;stroke-width:1.0;"/><line style="stroke:#A80036;stroke-width:1.0;" x1="191.5" x2="357.5" y1="330.01" y2="330.01"/><text fill="#000000" font-family="sans-serif" font-size="13" lengthAdjust="spacing" textLength="127" x="198.5" y="324.201">Statistik aktualisieren</text><polygon fill="#A80036" points="179.5,357.716,189.5,361.716,179.5,365.716,183.5,361.716" style="stroke:#A80036;stroke-width:1.0;"/><line style="stroke:#A80036;stroke-width:1.0;" x1="46.5" x2="185.5" y1="361.716" y2="361.716"/><text fill="#000000" font-family="sans-serif" font-size="13" lengthAdjust="spacing" textLength="121" x="53.5" y="355.907">Stand (automatisch)</text><!--MD5=[b359ad3e7bce8af705fb735aaf6fda9a]
@startuml DoubleDown
actor Spieler
participant Croupier
participant Kartenzähler

opt Empfehlung abfragen
Spieler -> Kartenzähler : Empfehlung anfragen
Kartenzähler -> Spieler : Empfehlung: Double Down
end 
Spieler -> Croupier : Double Down
Croupier -> Croupier : Spieler-Einsatz verdoppeln
Croupier -> Spieler : Karte
Croupier -> Kartenzähler : Statistik aktualisieren
Spieler -> Croupier : Stand (automatisch)

@enduml

PlantUML version 1.2021.00(Sun Jan 10 10:25:05 GMT 2021)
(MIT source distribution)
Java Runtime: OpenJDK Runtime Environment
JVM: OpenJDK 64-Bit Server VM
Default Encoding: UTF-8
Language: en
Country: GB
--></g></svg>